<svg width="43" height="13" viewBox="0 0 43 13" fill="none" xmlns="http://www.w3.org/2000/svg">
<path d="M2.76345 4.63671C3.19454 5.97104 3.58754 7.27344 4.06553 8.74439C3.14304 8.71677 2.56882 8.20288 2.30498 7.59251C1.51347 5.7614 0.754147 3.89242 0.167592 1.97372C-0.172602 0.877749 0.585595 0.216302 1.70441 0.473379C3.57885 0.877588 5.42698 1.38946 7.30731 1.86346C7.41568 1.88946 7.55919 1.91251 7.60022 1.97934C7.79653 2.2088 7.9255 2.47908 8.08962 2.74641C7.85247 2.87185 7.62708 3.13689 7.41329 3.11978C6.6665 3.07734 5.94896 2.96214 5.23436 2.88184C4.84192 2.84466 4.48168 2.76961 3.93414 2.99153C4.35602 3.37769 4.78084 3.79875 5.20272 4.18491C14.267 11.785 26.9595 12.4716 36.8873 5.97555C38.1609 5.13004 39.3172 4.15385 40.5497 3.24151C40.983 2.92379 41.4192 2.64097 41.8525 2.32325C41.9638 2.38415 42.0429 2.48291 42.1542 2.54382C42.0753 2.86679 42.0755 3.28853 41.8472 3.51866C41.1359 4.31673 40.4246 5.1148 39.5991 5.81707C31.414 12.8339 19.3109 14.1009 9.42189 8.89001C7.53255 7.88958 5.82755 6.55728 4.06405 5.3705C3.68908 5.12096 3.38146 4.8306 3.03869 4.5432C2.96547 4.51423 2.86299 4.55802 2.76345 4.63671Z" fill="#7C2F88"/>
</svg>
