<svg width="30" height="30" viewBox="0 0 30 30" fill="none" xmlns="http://www.w3.org/2000/svg">
<path fill-rule="evenodd" clip-rule="evenodd" d="M4.6875 8.6875C4.6875 7.99713 5.24714 7.4375 5.9375 7.4375H24.0625C24.7529 7.4375 25.3125 7.99713 25.3125 8.6875V24.3125C25.3125 26.211 23.7735 27.75 21.875 27.75H8.125C6.22652 27.75 4.6875 26.211 4.6875 24.3125V8.6875ZM19.375 12.4375C18.8573 12.4375 18.4375 12.0177 18.4375 11.5V5.5625C18.4375 3.66402 16.8985 2.125 15 2.125C13.1015 2.125 11.5625 3.66402 11.5625 5.5625V11.5C11.5625 12.0177 11.1427 12.4375 10.625 12.4375C10.1073 12.4375 9.6875 12.0177 9.6875 11.5V5.5625C9.6875 2.62849 12.066 0.25 15 0.25C17.934 0.25 20.3125 2.62849 20.3125 5.5625V11.5C20.3125 12.0177 19.8927 12.4375 19.375 12.4375Z" fill="url(#paint0_linear_214_90)"/>
<defs>
<linearGradient id="paint0_linear_214_90" x1="-1.21552" y1="1.38793" x2="29.178" y2="5.50289" gradientUnits="userSpaceOnUse">
<stop stop-color="#7C2F88"/>
<stop offset="1" stop-color="#D174FD"/>
</linearGradient>
</defs>
</svg>
