<svg width="30" height="30" viewBox="0 0 30 30" fill="none" xmlns="http://www.w3.org/2000/svg">
<g clip-path="url(#clip0_97_2050)">
<path d="M6.09112 6.52913C6.43412 6.43822 6.75851 6.3597 7.06225 6.28532C7.41557 6.19854 7.73997 6.12002 8.04164 6.03324C8.09742 6.34937 8.17387 6.6593 8.26892 6.96097C8.01891 7.20685 7.86394 7.54985 7.86394 7.92796C7.86394 8.67594 8.47141 9.28341 9.21938 9.28341C9.31443 9.28341 9.40534 9.27307 9.49626 9.25448C9.83925 9.68425 10.2318 10.0748 10.6637 10.4157C10.6389 10.5169 10.6265 10.6244 10.6265 10.7339C10.6265 11.4819 11.2339 12.0893 11.9819 12.0893C12.389 12.0893 12.7547 11.9096 13.0026 11.6265L12.9902 11.641C13.2217 11.7133 13.4593 11.7732 13.701 11.8207L11.5625 13.9593L11.2443 14.2775L15.0792 18.1124L18.912 14.2775L16.4636 11.8269C16.7053 11.7794 16.945 11.7215 17.1764 11.6513C17.4243 11.9199 17.7797 12.0893 18.1723 12.0893C18.9203 12.0893 19.5278 11.4819 19.5278 10.7339C19.5278 10.6368 19.5174 10.5417 19.4988 10.4508C19.5484 10.4116 19.6001 10.3723 19.6497 10.331C20.0381 10.0128 20.3914 9.65533 20.7055 9.26274C20.7799 9.27514 20.8563 9.28134 20.9349 9.28134C21.6849 9.28134 22.2903 8.67387 22.2903 7.9259C22.2903 7.56844 22.1519 7.24405 21.9266 7.00023C22.0134 6.73369 22.0857 6.46095 22.1395 6.18201C22.1436 6.16341 22.1457 6.14482 22.1477 6.12622L24.9082 6.84733C25.7492 7.06635 25.9826 7.02709 26.6273 7.64283C28.2059 9.15117 27.6274 11.5211 27.1211 13.6059C27.0343 13.9593 26.9517 14.3023 26.8794 14.6411C26.3979 16.9326 25.7843 19.1703 25.0032 21.3398C24.2222 23.5093 23.2718 25.6086 22.1167 27.617C22.0176 27.7906 21.8357 27.8877 21.6498 27.8877V27.8897H8.46521C8.25239 27.8897 8.06643 27.7658 7.97965 27.586C7.19655 26.2306 6.47544 24.8379 5.83078 23.4019C5.17992 21.9535 4.60758 20.4699 4.13028 18.943C3.81001 17.9243 3.52901 16.8768 3.29139 15.7961C3.05584 14.7238 2.86368 13.6307 2.72111 12.5108L2.68392 12.2278C2.42771 10.2566 2.1529 8.14492 4.06209 7.17173C4.61997 6.88659 5.46299 6.6965 6.09112 6.52913ZM8.90325 5.72331C9.84338 5.29353 10.5728 4.55796 11.3331 2.8244C11.422 2.62191 11.6183 2.5 11.827 2.5H18.4203C18.6661 2.5 18.8748 2.6653 18.9389 2.89052C19.193 3.59923 19.4947 4.22323 19.8666 4.73359C20.2158 5.21502 20.627 5.59727 21.1188 5.85761L21.2923 5.90307C21.2758 5.93613 21.2655 5.97125 21.2572 6.01051C21.2179 6.20474 21.1725 6.39483 21.1167 6.58079C21.0568 6.57252 20.9968 6.56839 20.9349 6.56839C20.1869 6.56839 19.5794 7.17586 19.5794 7.92383C19.5794 8.26476 19.7055 8.57469 19.9121 8.81231C19.6621 9.11191 19.3831 9.38672 19.0815 9.63466C19.0649 9.64913 19.0463 9.66359 19.0298 9.67806C18.7963 9.48796 18.4988 9.37432 18.1744 9.37432C17.4264 9.37432 16.8189 9.98179 16.8189 10.7298C16.8189 10.7587 16.821 10.7876 16.821 10.8165C16.4491 10.9219 16.0648 10.9942 15.6681 11.0294C15.2734 11.0562 14.8829 11.048 14.4944 11.0252C14.0977 10.986 13.7093 10.9116 13.3374 10.8021C13.3312 10.9364 13.3394 10.769 13.3394 10.7298C13.3394 9.97972 12.732 9.37432 11.984 9.37432C11.672 9.37432 11.3848 9.4797 11.1554 9.65739C10.8331 9.39498 10.5376 9.10364 10.2711 8.78338L10.269 8.78545C10.4612 8.55196 10.5748 8.25236 10.5748 7.9259C10.5748 7.17586 9.96735 6.57046 9.21938 6.57046C9.17599 6.57046 9.1326 6.57252 9.08921 6.57666C9.01069 6.29978 8.94664 6.01464 8.90325 5.72331ZM20.9349 7.27504C21.2944 7.27504 21.5857 7.56638 21.5857 7.9259C21.5857 8.28542 21.2944 8.57676 20.9349 8.57676C20.5753 8.57676 20.284 8.28542 20.284 7.9259C20.284 7.56638 20.5753 7.27504 20.9349 7.27504ZM9.22145 7.27504C9.58097 7.27504 9.87231 7.56638 9.87231 7.9259C9.87231 8.28542 9.58097 8.57676 9.22145 8.57676C8.86193 8.57676 8.57059 8.28542 8.57059 7.9259C8.57059 7.56638 8.86193 7.27504 9.22145 7.27504ZM11.984 10.081C12.3435 10.081 12.6348 10.3723 12.6348 10.7318C12.6348 11.0914 12.3435 11.3827 11.984 11.3827C11.6245 11.3827 11.3331 11.0914 11.3331 10.7318C11.3331 10.3723 11.6245 10.081 11.984 10.081ZM18.1744 10.081C18.5339 10.081 18.8252 10.3723 18.8252 10.7318C18.8252 11.0914 18.5339 11.3827 18.1744 11.3827C17.8149 11.3827 17.5235 11.0914 17.5235 10.7318C17.5235 10.3723 17.8149 10.081 18.1744 10.081ZM15.0792 13.5068C15.5048 13.5068 15.8499 13.8518 15.8499 14.2775C15.8499 14.7031 15.5048 15.0482 15.0792 15.0482C14.6535 15.0482 14.3085 14.7031 14.3085 14.2775C14.3064 13.8518 14.6535 13.5068 15.0792 13.5068ZM12.8766 14.2775L15.0792 12.0749L17.2818 14.2775L15.0792 16.4801L12.8766 14.2775Z" fill="url(#paint0_linear_97_2050)"/>
</g>
<defs>
<linearGradient id="paint0_linear_97_2050" x1="-4.6967" y1="3.55061" x2="31.8802" y2="10.0921" gradientUnits="userSpaceOnUse">
<stop stop-color="#7C2F88"/>
<stop offset="1" stop-color="#D174FD"/>
</linearGradient>
<clipPath id="clip0_97_2050">
<rect width="25.1562" height="25.3897" fill="white" transform="translate(2.5 2.5)"/>
</clipPath>
</defs>
</svg>
