<svg width="30" height="30" viewBox="0 0 30 30" fill="none" xmlns="http://www.w3.org/2000/svg">
<path d="M8.4073 12.832L3.18411 20.5446C3.14899 20.6015 3.12884 20.6662 3.12554 20.7329C3.12224 20.7996 3.13589 20.8661 3.16523 20.9261C3.19456 20.9861 3.23862 21.0377 3.2933 21.076C3.34797 21.1144 3.41147 21.1382 3.47786 21.1454L13.7822 22.2375L8.4073 12.832ZM3.49198 17.7976L7.21729 11.7444L3.42494 9.46929C3.39494 9.45114 3.36066 9.44129 3.3256 9.44076C3.29054 9.44023 3.25597 9.44903 3.22544 9.46627C3.19491 9.48351 3.16952 9.50857 3.15187 9.53886C3.13422 9.56916 3.12495 9.6036 3.12501 9.63867V17.6944C3.12469 17.7378 3.13862 17.78 3.16466 17.8146C3.1907 17.8492 3.22739 17.8744 3.2691 17.8861C3.31081 17.8978 3.35522 17.8955 3.39549 17.8795C3.43576 17.8636 3.46966 17.8348 3.49198 17.7976V17.7976ZM4.02832 23.1496L13.6437 27.4871C13.704 27.515 13.7703 27.5271 13.8366 27.5226C13.9028 27.5181 13.9669 27.497 14.0228 27.4612C14.0788 27.4255 14.1248 27.3762 14.1568 27.318C14.1887 27.2598 14.2055 27.1945 14.2057 27.1281V23.8792L4.13683 22.7756C4.09016 22.7698 4.04295 22.7808 4.00368 22.8067C3.9644 22.8325 3.93565 22.8716 3.92257 22.9167C3.9095 22.9619 3.91297 23.0103 3.93235 23.0531C3.95173 23.096 3.98576 23.1305 4.02832 23.1505V23.1496ZM8.0465 10.3947L12.0012 3.32249C12.0458 3.24794 12.0647 3.16078 12.055 3.07443C12.0452 2.98809 12.0073 2.90735 11.9471 2.84466C11.8869 2.78198 11.8078 2.74082 11.7219 2.72753C11.636 2.71425 11.5482 2.72958 11.4719 2.77115L4.00715 7.65031C3.97924 7.66873 3.95643 7.69392 3.94085 7.72351C3.92527 7.75311 3.91743 7.78617 3.91804 7.81961C3.91866 7.85306 3.92772 7.8858 3.94438 7.91481C3.96103 7.94381 3.98475 7.96814 4.01333 7.98552L8.0465 10.3947ZM14.9996 10.8984H20.4036L15.6744 2.56737C15.6032 2.45268 15.5039 2.35805 15.3859 2.29244C15.2678 2.22682 15.1351 2.19238 15 2.19238C14.865 2.19238 14.7322 2.22682 14.6142 2.29244C14.4962 2.35805 14.3969 2.45268 14.3256 2.56737L9.59644 10.8993L14.9996 10.8984ZM26.5751 9.46929L22.7819 11.7452L26.5072 17.7994C26.5295 17.8366 26.5635 17.8654 26.6039 17.8814C26.6443 17.8974 26.6887 17.8996 26.7305 17.8878C26.7723 17.8759 26.809 17.8506 26.8349 17.8159C26.8609 17.7811 26.8747 17.7387 26.8742 17.6953V9.63867C26.8741 9.60374 26.8648 9.56944 26.8472 9.53927C26.8296 9.5091 26.8043 9.48414 26.7739 9.46693C26.7436 9.44971 26.7091 9.44086 26.6742 9.44128C26.6393 9.44169 26.6051 9.45136 26.5751 9.46929V9.46929ZM21.9536 10.3947L25.9876 7.98464C26.0162 7.96725 26.0399 7.94293 26.0566 7.91392C26.0732 7.88492 26.0823 7.85217 26.0829 7.81873C26.0835 7.78529 26.0757 7.75223 26.0601 7.72263C26.0445 7.69303 26.0217 7.66785 25.9938 7.64942L18.5317 2.77115C18.4554 2.72958 18.3675 2.71425 18.2817 2.72753C18.1958 2.74082 18.1167 2.78198 18.0565 2.84466C17.9963 2.90735 17.9584 2.98809 17.9486 3.07443C17.9389 3.16078 17.9578 3.24794 18.0024 3.32249L21.9536 10.3947ZM25.8632 22.7747L15.7918 23.8774V27.1264C15.7916 27.1928 15.8083 27.2583 15.8402 27.3166C15.8721 27.375 15.9181 27.4243 15.9742 27.4601C16.0302 27.4959 16.0943 27.517 16.1607 27.5214C16.227 27.5258 16.2934 27.5134 16.3537 27.4854L25.9691 23.1479C26.0094 23.1268 26.0412 23.0926 26.0592 23.0508C26.0772 23.009 26.0802 22.9624 26.0678 22.9186C26.0553 22.8749 26.0282 22.8368 25.9909 22.8107C25.9537 22.7847 25.9086 22.7723 25.8632 22.7756V22.7747ZM21.5928 12.832L16.2178 22.2375L26.5222 21.1454C26.5886 21.1382 26.6521 21.1144 26.7068 21.076C26.7614 21.0377 26.8055 20.9861 26.8348 20.9261C26.8642 20.8661 26.8778 20.7996 26.8745 20.7329C26.8712 20.6662 26.8511 20.6015 26.8159 20.5446L21.5928 12.8312V12.832ZM14.9996 12.4792H10.0305L14.9996 21.1754L19.9687 12.4792H14.9996Z" fill="url(#paint0_linear_97_2051)"/>
<defs>
<linearGradient id="paint0_linear_97_2051" x1="-3.67241" y1="3.24057" x2="30.9752" y2="9.10473" gradientUnits="userSpaceOnUse">
<stop stop-color="#7C2F88"/>
<stop offset="1" stop-color="#D174FD"/>
</linearGradient>
</defs>
</svg>
