<svg width="30" height="30" viewBox="0 0 30 30" fill="none" xmlns="http://www.w3.org/2000/svg">
<path d="M28.0478 19.2193H27.3446V14.4686C27.3437 13.9094 27.1207 13.3736 26.7248 12.9788L22.3345 8.5885C22.1392 8.39218 21.9071 8.23627 21.6515 8.12966C21.3959 8.02306 21.1217 7.96785 20.8448 7.9672H18.9069V5.8586C18.9069 5.58161 18.8523 5.30734 18.7463 5.05145C18.6402 4.79556 18.4848 4.56306 18.2889 4.36725C18.093 4.17143 17.8605 4.01614 17.6045 3.91023C17.3486 3.80432 17.0743 3.74987 16.7973 3.75H2.73358C2.17435 3.75 1.63802 3.97216 1.24259 4.3676C0.847153 4.76303 0.625 5.29937 0.625 5.8586L0.625 19.9225C0.625 20.4817 0.847153 21.018 1.24259 21.4135C1.63802 21.8089 2.17435 22.0311 2.73358 22.0311H3.43775C3.43775 23.15 3.88223 24.2231 4.67342 25.0143C5.46462 25.8055 6.5377 26.25 7.65662 26.25C8.77553 26.25 9.84862 25.8055 10.6398 25.0143C11.431 24.2231 11.8755 23.15 11.8755 22.0311H17.5005C17.5005 23.15 17.945 24.2231 18.7362 25.0143C19.5274 25.8055 20.6004 26.25 21.7194 26.25C22.8383 26.25 23.9114 25.8055 24.7026 25.0143C25.4937 24.2231 25.9382 23.15 25.9382 22.0311H28.0468C28.2332 22.0306 28.4117 21.9563 28.5435 21.8245C28.6752 21.6928 28.7495 21.5142 28.75 21.3279V19.9225C28.7495 19.7363 28.6754 19.5579 28.5438 19.4262C28.4123 19.2944 28.234 19.2201 28.0478 19.2193V19.2193ZM7.65637 24.1416C7.23934 24.1416 6.83166 24.018 6.48491 23.7863C6.13816 23.5546 5.86789 23.2253 5.7083 22.84C5.54871 22.4547 5.50695 22.0307 5.58831 21.6217C5.66967 21.2126 5.87049 20.8369 6.16538 20.542C6.46027 20.2471 6.83599 20.0463 7.24501 19.965C7.65403 19.8836 8.078 19.9254 8.46329 20.0849C8.84858 20.2445 9.1779 20.5148 9.40959 20.8616C9.64129 21.2083 9.76495 21.616 9.76495 22.033C9.76495 22.5923 9.5428 23.1286 9.14736 23.524C8.75193 23.9195 8.2156 24.1416 7.65637 24.1416V24.1416ZM21.7191 24.1416C21.3021 24.1416 20.8944 24.018 20.5477 23.7863C20.2009 23.5546 19.9306 23.2253 19.771 22.84C19.6115 22.4547 19.5697 22.0307 19.6511 21.6217C19.7324 21.2126 19.9332 20.8369 20.2281 20.542C20.523 20.2471 20.8987 20.0463 21.3078 19.965C21.7168 19.8836 22.1407 19.9254 22.526 20.0849C22.9113 20.2445 23.2406 20.5148 23.4723 20.8616C23.704 21.2083 23.8277 21.616 23.8277 22.033C23.8277 22.5922 23.6056 23.1285 23.2103 23.5239C22.815 23.9193 22.2788 24.1415 21.7196 24.1416H21.7191ZM25.2351 15.0006H18.9069V10.0783H20.8448L25.2351 14.4686V15.0006Z" fill="url(#paint0_linear_97_2046)"/>
<defs>
<linearGradient id="paint0_linear_97_2046" x1="-7.42457" y1="4.68103" x2="32.7359" y2="13.7432" gradientUnits="userSpaceOnUse">
<stop stop-color="#7C2F88"/>
<stop offset="1" stop-color="#D174FD"/>
</linearGradient>
</defs>
</svg>
