<svg width="16" height="16" viewBox="0 0 16 16" fill="none" xmlns="http://www.w3.org/2000/svg">
<path fill-rule="evenodd" clip-rule="evenodd" d="M10.0052 1.07112C10.1858 0.954624 10.4278 1.03432 10.5038 1.23533L11.2611 3.23689C11.3083 3.36178 11.4248 3.44708 11.5581 3.45448L13.6947 3.57309C13.9093 3.585 14.0582 3.79174 14.0016 3.99906L13.4378 6.06348C13.4026 6.19229 13.4467 6.32973 13.5502 6.41409L15.209 7.76599C15.3756 7.90175 15.3746 8.15657 15.207 8.29101L13.5375 9.62975C13.4333 9.71328 13.3882 9.85038 13.4223 9.97946L13.9698 12.0483C14.0248 12.256 13.8742 12.4616 13.6595 12.4718L11.522 12.5735C11.3887 12.5799 11.2716 12.6642 11.2233 12.7887L10.4503 14.7843C10.3726 14.9847 10.13 15.0624 9.95033 14.9445L8.16129 13.7704C8.04966 13.6971 7.90534 13.6965 7.79313 13.7689L5.99485 14.9289C5.81426 15.0454 5.57224 14.9657 5.4962 14.7647L4.73895 12.7631C4.6917 12.6382 4.57527 12.5529 4.44196 12.5455L2.30534 12.4269C2.09077 12.415 1.94181 12.2083 1.99843 12.0009L2.56223 9.93652C2.59741 9.80771 2.55335 9.67026 2.44985 9.58591L0.790996 8.23401C0.624405 8.09825 0.625412 7.84343 0.793071 7.70899L2.46256 6.37025C2.56673 6.28671 2.61187 6.14962 2.57771 6.02054L2.03026 3.95173C1.97528 3.74396 2.12586 3.53841 2.34052 3.52819L4.47801 3.42648C4.61138 3.42014 4.72848 3.33576 4.77671 3.21125L5.54976 1.21574C5.6274 1.01534 5.87004 0.937559 6.04971 1.05548L7.83875 2.22965C7.95038 2.30291 8.0947 2.30348 8.20691 2.2311L10.0052 1.07112ZM5.25003 4.83379C4.6057 4.83379 4.08336 5.35612 4.08336 6.00046V7.33379C4.08336 7.97812 4.6057 8.50046 5.25003 8.50046H5.91669C6.56103 8.50046 7.08336 7.97812 7.08336 7.33379V6.00046C7.08336 5.35612 6.56103 4.83379 5.91669 4.83379H5.25003ZM5.08336 6.00046C5.08336 5.90841 5.15798 5.83379 5.25003 5.83379H5.91669C6.00874 5.83379 6.08336 5.90841 6.08336 6.00046V7.33379C6.08336 7.42584 6.00874 7.50046 5.91669 7.50046H5.25003C5.15798 7.50046 5.08336 7.42584 5.08336 7.33379V6.00046ZM8.91666 8.66764C8.91666 8.02331 9.439 7.50098 10.0833 7.50098H10.75C11.3943 7.50098 11.9167 8.02331 11.9167 8.66764V10.001C11.9167 10.6453 11.3943 11.1676 10.75 11.1676H10.0833C9.439 11.1676 8.91666 10.6453 8.91666 10.001V8.66764ZM10.0833 8.50098C9.99128 8.50098 9.91666 8.5756 9.91666 8.66764V10.001C9.91666 10.093 9.99128 10.1676 10.0833 10.1676H10.75C10.842 10.1676 10.9167 10.093 10.9167 10.001V8.66764C10.9167 8.5756 10.842 8.50098 10.75 8.50098H10.0833ZM10.1928 4.8998C10.3211 4.6553 10.227 4.35304 9.98248 4.22468C9.73798 4.09632 9.43572 4.19047 9.30736 4.43497L5.80736 11.1016C5.679 11.3461 5.77315 11.6484 6.01764 11.7767C6.26214 11.9051 6.5644 11.811 6.69276 11.5665L10.1928 4.8998Z" fill="white"/>
</svg>
