<svg width="30" height="30" viewBox="0 0 30 30" fill="none" xmlns="http://www.w3.org/2000/svg">
<g clip-path="url(#clip0_101_2297)">
<path fill-rule="evenodd" clip-rule="evenodd" d="M4.99125 14.2463H9.98569C9.98569 14.2588 9.98569 14.2735 9.98569 14.286V20.7884H3.66108V15.4635C3.66108 14.7942 4.26133 14.2463 4.99125 14.2463ZM6.68325 8.06599C5.5685 7.28587 4.86786 6.29869 4.60433 5.42028C4.4161 4.78865 4.43074 4.17585 4.65034 3.65717C4.90341 3.06319 5.38863 2.63025 6.1081 2.45666C7.1141 2.21196 8.67852 2.56333 10.7512 3.97298C11.0147 4.15284 11.4915 4.48539 11.96 4.81375C12.5143 5.20067 13.0518 5.57714 13.5056 5.89086C13.9888 5.41609 14.6497 5.1212 15.3796 5.1212C16.1785 5.1212 16.8938 5.47256 17.3832 6.0268C17.8747 5.68798 18.4896 5.25714 19.1254 4.81166C19.5939 4.4833 20.0728 4.14866 20.3343 3.97089C22.4048 2.56124 23.9714 2.20987 24.9773 2.45457C25.6968 2.63025 26.182 3.0611 26.4351 3.65507C26.6547 4.17376 26.6693 4.78865 26.4811 5.41818C26.2176 6.2966 25.5169 7.28378 24.4022 8.0639H27.2215C27.7172 8.0639 28.1229 8.44036 28.1229 8.90048V11.9352C28.1229 12.3953 27.7172 12.7718 27.2215 12.7718H3.32644C2.83076 12.7718 2.42502 12.3953 2.42502 11.9352V8.90258C2.42502 8.44245 2.83076 8.06599 3.32644 8.06599H6.68325ZM20.3364 6.5434C19.7989 6.91986 19.2697 7.28796 18.7699 7.61632C19.2488 7.57867 19.7926 7.50966 20.3594 7.39881C20.6606 7.34025 20.9554 7.27332 21.2315 7.19594C21.5034 7.12064 21.7816 7.03071 22.0639 6.92195L22.0681 6.91986C23.4422 6.39281 24.2412 5.52485 24.4545 4.81375C24.5026 4.6548 24.5151 4.53768 24.4921 4.48121C24.49 4.47911 24.49 4.47702 24.49 4.47702V4.47911C24.49 4.48539 24.4942 4.50839 24.4838 4.5063C23.9944 4.38709 23.0406 4.68826 21.5306 5.71727C20.9931 6.08327 20.6626 6.31543 20.3364 6.5434ZM24.49 4.47911C24.49 4.47911 24.49 4.48121 24.49 4.47911V4.47911ZM12.3198 7.61632C11.8178 7.29005 11.2908 6.91986 10.7533 6.5434C10.427 6.31543 10.0944 6.08327 9.56112 5.71936C8.05107 4.69035 7.09736 4.38918 6.60796 4.50839C6.5975 4.51049 6.60169 4.48748 6.60169 4.48121C6.60169 4.48121 6.60169 4.48121 6.59959 4.48539C6.57659 4.54186 6.58914 4.65689 6.63724 4.81793C6.85057 5.52903 7.64951 6.39699 9.02361 6.92404L9.02779 6.92614C9.31014 7.03489 9.5904 7.12483 9.8602 7.20012C10.1384 7.2775 10.4312 7.34443 10.7323 7.40299C11.297 7.50756 11.8408 7.57867 12.3198 7.61632ZM12.3616 14.2463H25.5567C26.2887 14.2463 26.8869 14.7942 26.8869 15.4614V20.7884H12.3637V14.2881C12.3637 14.2735 12.3637 14.2609 12.3616 14.2463ZM26.889 23.1978V26.8244C26.889 27.4916 26.2908 28.0395 25.5588 28.0395H12.3637V23.1978H26.889ZM9.98569 28.0416H4.99125C4.26133 28.0416 3.66108 27.4958 3.66108 26.8265V23.1978H9.98569V28.0416Z" fill="#2C2B2B"/>
</g>
<defs>
<clipPath id="clip0_101_2297">
<rect width="25.7" height="25.6582" fill="white" transform="translate(2.42499 2.38379)"/>
</clipPath>
</defs>
</svg>
