<svg width="27" height="27" viewBox="0 0 27 27" fill="none" xmlns="http://www.w3.org/2000/svg">
<path fill-rule="evenodd" clip-rule="evenodd" d="M2.99128 12.2463H7.98572C7.98572 12.2588 7.98572 12.2735 7.98572 12.286V18.7884H1.66111V13.4635C1.66111 12.7942 2.26136 12.2463 2.99128 12.2463ZM4.68328 6.06599C3.56853 5.28587 2.86789 4.29869 2.60436 3.42028C2.41613 2.78865 2.43077 2.17585 2.65037 1.65717C2.90344 1.06319 3.38866 0.630254 4.10813 0.456662C5.11413 0.21196 6.67855 0.563327 8.75119 1.97298C9.01472 2.15284 9.49157 2.48539 9.96006 2.81375C10.5143 3.20067 11.0518 3.57714 11.5057 3.89086C11.9888 3.41609 12.6497 3.1212 13.3796 3.1212C14.1786 3.1212 14.8938 3.47256 15.3832 4.0268C15.8747 3.68798 16.4896 3.25714 17.1254 2.81166C17.5939 2.4833 18.0729 2.14866 18.3343 1.97089C20.4049 0.561236 21.9714 0.209868 22.9774 0.454571C23.6968 0.630254 24.1821 1.0611 24.4351 1.65507C24.6547 2.17376 24.6694 2.78865 24.4811 3.41818C24.2176 4.2966 23.517 5.28378 22.4022 6.0639H25.2215C25.7172 6.0639 26.123 6.44036 26.123 6.90048V9.93521C26.123 10.3953 25.7172 10.7718 25.2215 10.7718H1.32647C0.830794 10.7718 0.425049 10.3953 0.425049 9.93521V6.90258C0.425049 6.44245 0.830794 6.06599 1.32647 6.06599H4.68328ZM18.3364 4.5434C17.7989 4.91986 17.2698 5.28796 16.7699 5.61632C17.2488 5.57867 17.7926 5.50966 18.3594 5.39881C18.6606 5.34025 18.9555 5.27332 19.2316 5.19594C19.5034 5.12064 19.7816 5.03071 20.064 4.92195L20.0681 4.91986C21.4422 4.39281 22.2412 3.52485 22.4545 2.81375C22.5026 2.6548 22.5152 2.53768 22.4922 2.48121C22.4901 2.47911 22.4901 2.47702 22.4901 2.47702V2.47911C22.4901 2.48539 22.4942 2.50839 22.4838 2.5063C21.9944 2.38709 21.0407 2.68826 19.5306 3.71727C18.9931 4.08327 18.6627 4.31543 18.3364 4.5434ZM22.4901 2.47911C22.4901 2.47911 22.4901 2.48121 22.4901 2.47911V2.47911ZM10.3198 5.61632C9.81784 5.29005 9.29079 4.91986 8.75329 4.5434C8.42702 4.31543 8.09447 4.08327 7.56115 3.71936C6.05111 2.69035 5.09739 2.38918 4.60799 2.50839C4.59753 2.51049 4.60172 2.48748 4.60172 2.48121C4.60172 2.48121 4.60172 2.48121 4.59962 2.48539C4.57662 2.54186 4.58917 2.65689 4.63727 2.81793C4.8506 3.52903 5.64954 4.39699 7.02364 4.92404L7.02782 4.92614C7.31017 5.03489 7.59043 5.12483 7.86023 5.20012C8.13839 5.2775 8.4312 5.34443 8.73237 5.40299C9.29707 5.50756 9.84085 5.57867 10.3198 5.61632ZM10.3616 12.2463H23.5567C24.2887 12.2463 24.8869 12.7942 24.8869 13.4614V18.7884H10.3637V12.2881C10.3637 12.2735 10.3637 12.2609 10.3616 12.2463ZM24.889 21.1978V24.8244C24.889 25.4916 24.2908 26.0395 23.5588 26.0395H10.3637V21.1978H24.889ZM7.98572 26.0416H2.99128C2.26136 26.0416 1.66111 25.4958 1.66111 24.8265V21.1978H7.98572V26.0416Z" fill="url(#paint0_linear_243_1119)"/>
<defs>
<linearGradient id="paint0_linear_243_1119" x1="-6.92987" y1="1.44456" x2="30.4127" y2="8.19589" gradientUnits="userSpaceOnUse">
<stop stop-color="#7C2F88"/>
<stop offset="1" stop-color="#D174FD"/>
</linearGradient>
</defs>
</svg>
