<svg width="60" height="90" viewBox="0 0 60 90" fill="none" xmlns="http://www.w3.org/2000/svg">
<g clip-path="url(#clip0_277_206)">
<path d="M22.68 71.8C22.2 72.1733 21.3467 71.7467 20.12 70.52C19.8 70.2533 19.64 69.9333 19.64 69.56C19.64 69.2933 19.8533 68.1733 20.28 66.2C20.3867 65.4533 20.4933 64.92 20.6 64.6C20.8667 63.32 21.1867 61.96 21.56 60.52C21.9867 59.0267 22.2533 58.0667 22.36 57.64C22.7867 57.4267 23.7467 54.8133 25.24 49.8C26.04 46.92 26.9467 43.96 27.96 40.92C28.44 39.4267 28.8133 38.12 29.08 37C29.3467 35.88 29.5333 35.16 29.64 34.84C29.16 35.1067 28.12 35.72 26.52 36.68C24.9733 37.5867 23.5067 38.5733 22.12 39.64C22.0133 39.6933 21 40.4133 19.08 41.8C18.6533 42.0667 18.0667 42.4667 17.32 43C16.6267 43.5333 16.04 43.9333 15.56 44.2C14.76 44.84 14.0933 45.3467 13.56 45.72C13.08 46.04 12.7333 46.2 12.52 46.2C12.4133 46.2 12.1467 46.0933 11.72 45.88C10.7067 44.9733 10.2 44.0933 10.2 43.24C10.2 42.92 10.28 42.6 10.44 42.28C10.6533 42.2267 11.6133 41.5867 13.32 40.36C15.24 38.9733 16.3333 38.2267 16.6 38.12C16.7067 38.12 17 37.9333 17.48 37.56C17.96 37.1333 18.4133 36.7867 18.84 36.52C19 36.3067 20.2533 35.3733 22.6 33.72L26.84 30.6C31.32 27.8267 33.7733 26.4933 34.2 26.6C34.4667 26.6533 34.8933 26.92 35.48 27.4C36.12 27.8267 36.4667 28.2533 36.52 28.68C36.6267 28.8933 36.68 29.08 36.68 29.24C36.68 29.6133 36.4667 30.28 36.04 31.24C35.56 32.2533 34.68 34.6 33.4 38.28C32.1733 41.96 31.24 44.8667 30.6 47C30.2267 48.3867 29.6667 50.0933 28.92 52.12C28.76 52.6 28.52 53.2933 28.2 54.2C27.9333 55.0533 27.6933 55.9333 27.48 56.84C27 58.0133 26.4667 59.64 25.88 61.72C25.2933 63.8 24.84 65.56 24.52 67L23.72 69.4C23.24 70.84 22.8933 71.64 22.68 71.8Z" fill="#B4B3E1"/>
<path d="M4.13706 10.2707C2.14122 34.052 2.84369 57.7622 5.68831 81.404C5.82553 82.5444 5.55769 84.0585 6.12266 85.0971C6.96703 86.6494 11.8044 85.7293 13.1343 85.7293C19.9786 85.7293 26.7924 84.5315 33.6108 84.5315C40.1295 84.5315 46.7057 83.9326 53.2807 83.9326C57.7717 83.9326 55.6328 73.2137 54.3666 70.1584C52.1256 64.7513 50.3062 59.3163 49.4956 53.3899C47.9289 41.9346 48.7427 30.2572 47.2618 18.788C46.9897 16.6807 47.5589 5.73837 45.2142 4.41497C43.5441 3.47236 39.7582 4.40055 38.0474 4.6146C34.1168 5.10636 30.1825 5.55011 26.2579 6.04525C22.6114 6.5053 18.6446 5.33244 15.0579 6.21161C11.2606 7.14239 7.66549 7.21275 4.13706 8.47403" stroke="#B4B3E1" stroke-width="4" stroke-linecap="round"/>
</g>
<defs>
<clipPath id="clip0_277_206">
<rect width="60" height="90" fill="white"/>
</clipPath>
</defs>
</svg>
