<svg width="60" height="90" viewBox="0 0 60 90" fill="none" xmlns="http://www.w3.org/2000/svg">
<path d="M22.44 68.72C20.3067 68.72 18.4133 68.4 16.76 67.76C15.16 67.0667 14.4133 66.2667 14.52 65.36C14.5733 64.7733 14.6533 64.4 14.76 64.24C14.92 64.0267 15.2133 63.92 15.64 63.92L17.32 64.08C18.4933 64.2933 19.4533 64.4 20.2 64.4C22.6 64.4 25.0533 63.9467 27.56 63.04C30.0667 62.1333 31.96 61.04 33.24 59.76C34.52 58.5333 35.16 57.2533 35.16 55.92C35.16 54.4267 34.3333 53.12 32.68 52C31.6667 51.3067 30.12 50.6667 28.04 50.08C25.96 49.4933 24.36 49.2533 23.24 49.36C23.08 49.4133 22.8667 49.44 22.6 49.44C22.0667 49.44 21.4 49.2 20.6 48.72C20.12 48.1867 19.64 47.44 19.16 46.48C19.1067 46.2133 19.24 45.9467 19.56 45.68C19.9333 45.4133 20.7867 44.9067 22.12 44.16C23.4533 43.36 25.1867 42.4 27.32 41.28C30.5733 39.4667 32.8933 38.1333 34.28 37.28C35.72 36.3733 36.84 35.6 37.64 34.96C38.0667 34.4267 38.4133 33.9467 38.68 33.52C38.9467 33.0933 39.08 32.7733 39.08 32.56C39.08 32.3467 38.92 32.16 38.6 32C38.28 31.84 37.7467 31.68 37 31.52C35.4533 31.36 34.04 31.28 32.76 31.28C31.8 31.28 31.32 31.36 31.32 31.52H31C30.6267 31.36 29.5867 31.4667 27.88 31.84C26.2267 32.2133 25.3733 32.5067 25.32 32.72C25.2667 32.88 24.7067 33.1467 23.64 33.52C22.5733 33.8933 21.9067 34.08 21.64 34.08C21.2133 33.9733 20.7333 33.4667 20.2 32.56C19.72 31.6533 19.56 31.0133 19.72 30.64C19.88 30.16 21.5333 29.1733 24.68 27.68C25.6933 27.4133 27.3733 27.2267 29.72 27.12C32.12 26.96 33.88 26.9333 35 27.04C39.8 27.5733 42.52 29.5733 43.16 33.04C43.32 33.5733 43.4 34.0533 43.4 34.48C43.4 35.0667 43.1867 35.6267 42.76 36.16C42.3867 36.64 41.5867 37.44 40.36 38.56L38.44 39.84C36.68 40.96 34.9467 42 33.24 42.96C33.1333 43.0667 32.4667 43.52 31.24 44.32C29.8533 45.1733 29.16 45.68 29.16 45.84C29.2667 45.9467 29.5067 46.1333 29.88 46.4C30.3067 46.6133 30.7333 46.9067 31.16 47.28C32.5467 47.76 33.88 48.56 35.16 49.68C36.44 50.7467 37.4267 51.76 38.12 52.72C38.76 54.16 39.08 55.5467 39.08 56.88C39.08 58.5867 38.5733 60.1867 37.56 61.68C36.6 63.12 35.1333 64.4267 33.16 65.6C31.72 66.4 30.0133 67.0933 28.04 67.68C26.0667 68.2667 24.2 68.6133 22.44 68.72Z" fill="#B4B3E1"/>
<path d="M4.3905 12.4784C4.3905 22.0079 3.87293 31.4678 3.927 40.9947C3.97411 49.295 5.80852 55.7067 7.42901 63.3541C8.74723 69.5749 10.65 74.388 10.416 81.0147C10.3796 82.0465 9.78697 82.3331 9.59201 83.202C9.33864 84.3313 13.1364 83.9312 13.403 83.9312C18.6211 83.9312 23.5034 83.2663 28.6728 82.4729C32.1108 81.9453 35.4338 81.7438 38.8956 81.7438C41.8323 81.7438 46.0428 82.9769 48.8866 81.3793C50.4083 80.5243 52.1438 81.2433 53.7276 80.6502C54.0817 80.5175 55.3044 80.5379 55.5816 80.1641C57.1888 77.9971 53.6843 68.4383 53.1611 66.5946C47.959 48.2644 50.0406 28.0086 46.3373 9.23794C45.6083 5.54249 46.1068 3 43.4276 3C34.8911 3 26.6764 8.567 18.141 8.83288C12.9753 8.99379 8.01989 11.7493 3 11.7493" stroke="#B4B3E1" stroke-width="4" stroke-linecap="round"/>
</svg>
