<svg width="60" height="90" viewBox="0 0 60 90" fill="none" xmlns="http://www.w3.org/2000/svg">
<path d="M13.72 69.16C13.3467 69 12.8133 68.6267 12.12 68.04C11.4267 67.4533 10.9733 66.92 10.76 66.44C10.7067 66.3867 10.68 66.2267 10.68 65.96C10.68 65.5867 10.76 65.16 10.92 64.68C11.08 64.2 11.24 63.96 11.4 63.96C11.56 64.12 11.9867 63.72 12.68 62.76C13.4267 61.7467 13.8267 61.1067 13.88 60.84C13.9333 60.6267 14.0933 60.44 14.36 60.28C14.68 60.0667 14.8933 59.9333 15 59.88C15.2667 59.4533 15.64 59 16.12 58.52C16.6533 57.9867 17 57.6133 17.16 57.4C17.3733 57.1333 17.7733 56.7067 18.36 56.12C18.9467 55.48 19.48 54.92 19.96 54.44C21.24 53.2667 22.1733 52.36 22.76 51.72C25.5333 48.7333 26.9733 47 27.08 46.52C27.1333 46.4667 27.24 46.36 27.4 46.2C27.56 46.04 27.7733 45.88 28.04 45.72C28.84 45.1867 29.5867 44.5733 30.28 43.88C30.3333 43.5067 30.6267 42.92 31.16 42.12C31.6933 41.32 32.2267 40.6533 32.76 40.12C33.1867 39.5333 33.56 38.8933 33.88 38.2C34.2533 37.4533 34.52 36.8133 34.68 36.28L34.84 35.56C34.84 35.3467 34.7067 35.1867 34.44 35.08C34.1733 34.92 33.8533 34.7867 33.48 34.68C33.16 34.5733 32.8933 34.4933 32.68 34.44C31.4533 34.0667 30.3867 33.88 29.48 33.88C27.5067 33.88 25.48 34.6 23.4 36.04C22.6533 36.2 22.0667 36.3867 21.64 36.6C20.68 36.92 20.0667 37.0533 19.8 37C19.64 36.9467 19.4 36.7067 19.08 36.28C18.76 35.8533 18.4667 35.5067 18.2 35.24L17.4 33.56L19.88 32.2C23.1867 30.0133 26.0667 28.92 28.52 28.92C29.3733 28.92 30.12 29.0267 30.76 29.24C31.24 29.24 31.72 29.2933 32.2 29.4C32.68 29.5067 32.9733 29.5867 33.08 29.64C33.72 29.5867 34.5467 30.0933 35.56 31.16C36.6267 32.2267 37.4267 33.32 37.96 34.44C38.6 35.4 38.92 36.3867 38.92 37.4C38.92 39 38.0667 41.0533 36.36 43.56C35.1867 44.9467 33.4 46.9467 31 49.56C28.6 52.1733 27.1333 53.6933 26.6 54.12C25.96 54.44 24.4133 55.9867 21.96 58.76C19.5067 61.5333 18.3867 62.92 18.6 62.92V63.08C18.6 62.76 20.2533 62.36 23.56 61.88C26.92 61.3467 29.5067 61.08 31.32 61.08C31.9067 61.08 32.3067 61.1333 32.52 61.24C32.6267 61.4533 32.7067 61.56 32.76 61.56C32.8667 61.5067 32.92 61.4533 32.92 61.4C32.9733 61.1867 33.3467 61.08 34.04 61.08C35.2667 61.08 36.7067 61.32 38.36 61.8C38.52 61.8533 38.7867 61.9333 39.16 62.04C39.5867 62.1467 39.88 62.2533 40.04 62.36C40.2 62.4667 40.28 62.5733 40.28 62.68C40.3333 62.7333 40.4133 62.8933 40.52 63.16C40.68 63.3733 40.8933 63.64 41.16 63.96C41.64 64.3333 41.88 64.6533 41.88 64.92C41.88 65.2933 41.4267 65.48 40.52 65.48C39.88 65.48 38.8133 65.3467 37.32 65.08C35.9333 65.08 34.7867 65.16 33.88 65.32C33.72 65.4267 33.2133 65.5067 32.36 65.56C31.56 65.56 30.9467 65.56 30.52 65.56C30.2533 65.5067 29.88 65.48 29.4 65.48C28.1733 65.48 26.44 65.8533 24.2 66.6C23.0267 67.08 21.1067 67.6667 18.44 68.36C15.7733 69.0533 14.2 69.32 13.72 69.16Z" fill="#B4B3E1"/>
<path d="M3 6.42445C6.11069 23.3012 2.21019 40.9512 5.83949 57.6074C7.35963 64.5839 7.69748 71.9977 8.14263 79.1244C8.21869 80.342 8.56591 85.1115 10.3827 85.2192C16.2954 85.5698 22.3688 86.4715 28.303 85.6907C36.3296 84.6345 44.2397 84.6131 52.3756 84.6131C53.2271 84.6131 54.4308 84.855 55.2466 84.6131C56.7998 84.1527 55.4888 77.2306 55.3728 75.9928C54.6893 68.6979 55.22 61.1885 53.6692 54.0381C52.2233 47.3718 52.5946 41.6147 52.9435 34.9118C53.2478 29.0653 55.3761 23.5671 55.783 17.7049C55.8832 16.2612 56.3922 12.2267 55.3728 11.1387C54.6744 10.3932 53.8509 10.8786 52.9751 10.3979C51.106 9.37197 50.2812 8.61281 48.1795 8.1081C41.7605 6.56664 35.409 5.97224 28.8078 6.45813C24.7211 6.75894 20.4254 8.18807 16.3141 7.60301C14.0955 7.28729 10.7077 6.91534 8.67898 5.95303C7.27286 5.28604 4.46779 4 3 4" stroke="#B4B3E1" stroke-width="4" stroke-linecap="round"/>
</svg>
