<svg width="25" height="25" viewBox="0 0 25 25" fill="none" xmlns="http://www.w3.org/2000/svg">
<path d="M18.7503 16.6831C20.0472 17.2341 20.8337 17.9571 20.8337 18.7498C20.8337 20.4758 17.1024 21.8748 12.5003 21.8748C7.89824 21.8748 4.16699 20.4758 4.16699 18.7498C4.16699 17.9581 4.95345 17.2331 6.25033 16.6831" stroke="#5D5AF6" stroke-width="2" stroke-linecap="round" stroke-linejoin="round"/>
<path fill-rule="evenodd" clip-rule="evenodd" d="M11.7312 18.4111L12.5 17.708L11.7312 18.4111ZM13.2687 18.4111L13.274 18.4059L13.2865 18.3913L13.3333 18.3393L13.5062 18.1455C14.3718 17.1597 15.1881 16.1317 15.9521 15.0653C16.6208 14.1278 17.3062 13.0653 17.8281 12.0101C18.3385 10.9788 18.75 9.84447 18.75 8.79551C18.75 5.07363 16.0229 2.08301 12.5 2.08301C8.97708 2.08301 6.25 5.07259 6.25 8.79551C6.25 9.84447 6.66146 10.9788 7.17188 12.0101C7.69375 13.0653 8.38021 14.1278 9.04688 15.0653C9.86192 16.202 10.7364 17.2948 11.6667 18.3393L11.7135 18.3913L11.726 18.4059L11.7312 18.4111C11.8288 18.5179 11.9476 18.6031 12.08 18.6614C12.2123 18.7198 12.3554 18.7499 12.5 18.7499C12.6446 18.7499 12.7877 18.7198 12.92 18.6614C13.0524 18.6031 13.1712 18.5179 13.2687 18.4111ZM12.5 17.708L13.2687 18.4101L12.5 17.708ZM12.5 6.24967C11.9475 6.24967 11.4176 6.46917 11.0269 6.85987C10.6362 7.25057 10.4167 7.78047 10.4167 8.33301C10.4167 8.88554 10.6362 9.41545 11.0269 9.80615C11.4176 10.1968 11.9475 10.4163 12.5 10.4163C13.0525 10.4163 13.5824 10.1968 13.9731 9.80615C14.3638 9.41545 14.5833 8.88554 14.5833 8.33301C14.5833 7.78047 14.3638 7.25057 13.9731 6.85987C13.5824 6.46917 13.0525 6.24967 12.5 6.24967Z" fill="#5D5AF6"/>
</svg>
