<svg width="50" height="50" viewBox="0 0 50 50" fill="none" xmlns="http://www.w3.org/2000/svg">
<path d="M6 13.4929C6 6.04099 12.0973 0 19.5492 0C26.2784 0 31.6734 5.66048 31.2859 12.3784C30.863 19.7084 24.2613 25.1088 16.9929 24.0704L13 23.5L12.5416 45.0425C12.5185 46.1303 11.6301 47 10.5421 47H8C6.89543 47 6 46.1046 6 45V13.4929Z" fill="#A5A3FF"/>
<path d="M5 43.7172H11.5113M5 43.7172V46.0396C5 47.1442 5.89543 48.0396 7 48.0396H9.51129C10.6159 48.0396 11.5113 47.1442 11.5113 46.0396V43.7172M5 43.7172V10.5793C6.39528 5.29651 9.65092 2.41516 13.3717 1.45452C16.1622 0.734043 18.4751 0.974591 21.2782 1.45453C23.5243 1.83908 26.8593 3.85582 28.2546 6.257V19.224C24.0688 24.0267 16.1622 25.4675 11.5113 21.6253M11.5113 43.7172V21.6253M11.5113 21.6253C11.4581 19.7059 11.7755 18.8742 12.9066 17.7832M18.4877 33.1515H17.232C16.1275 33.1515 15.232 34.0469 15.232 35.1515V35.9541C15.232 37.0586 16.1275 37.9541 17.232 37.9541H18.4877M18.4877 33.1515V31.7897C18.4877 30.6851 19.3831 29.7897 20.4877 29.7897H24.0688M18.4877 33.1515V37.9541M18.4877 37.9541V39.7961C18.4877 40.9007 19.3831 41.7961 20.4877 41.7961H24.0688M24.0688 41.7961V29.7897M24.0688 41.7961L29.6418 46.3394C30.9483 47.4044 32.9055 46.4748 32.9055 44.7892V40.8357M24.0688 29.7897L29.5483 24.7271C30.8292 23.5436 32.9055 24.4521 32.9055 26.1961V30.7503M8.72074 10.0992C9.93693 7.04605 10.9796 6.1829 13.8367 4.81634M32.9055 30.7503C32.9055 30.7503 37.5564 31.1066 37.5564 35.5529C37.5564 39.9992 32.9055 40.8357 32.9055 40.8357M32.9055 30.7503V40.8357M37.0914 27.8688C37.0914 27.8688 41.7423 30.27 41.7423 35.5529C41.7423 41.7961 37.0914 43.237 37.0914 43.237M37.0914 47.0791C37.0914 47.0791 45.1483 43.237 44.9979 35.5529C44.8475 27.8688 37.0914 24.5069 37.0914 24.5069M23.6037 15.382C22.0625 15.382 21.7433 14.0919 21.7433 12.5005C21.7433 11.0597 22.2084 10.0992 23.6037 10.0992C24.999 10.0992 25.4641 11.0597 25.4641 12.5005C25.4641 13.8529 24.999 15.382 23.6037 15.382Z" stroke="#1F1E48" stroke-width="1.2" stroke-linecap="round" stroke-linejoin="round"/>
</svg>
