<svg width="50" height="50" viewBox="0 0 50 50" fill="none" xmlns="http://www.w3.org/2000/svg">
<path d="M8 33.5L14.0631 18.3421C14.3995 17.5012 15.5912 17.5049 15.9224 18.3479L19.8446 28.3318C20.1309 29.0605 21.1056 29.1925 21.5754 28.5661L22.8082 26.9224C23.1733 26.4356 23.885 26.385 24.3153 26.8153L26.7212 29.2212C27.1386 29.6386 27.8249 29.6055 28.2002 29.1498L33.6879 22.4861C34.1008 21.9847 34.8747 22.0039 35.2623 22.5251L47.8127 39.4033C48.3033 40.063 47.8324 41 47.0102 41H6.47703C5.76957 41 5.28581 40.2855 5.54856 39.6286L8 33.5Z" fill="#A5A3FF"/>
<path d="M18.5 42.5H23.5M18.5 42.5C18.5 40.2287 16.6241 38.8954 14.4216 38.5C14.207 38.4615 13.9893 38.4318 13.7699 38.4111M18.5 42.5H11L13.7699 38.4111M23.5 42.5L21.5 37.4524L25.2818 31.5M23.5 42.5H28M23.5 42.5C21.3185 38.2878 19.6029 34.8291 18.2317 31.8247M13 16V13.75M13 16C11.55 23.354 8.99433 29.3719 2 42.5H7.5C7.5 39.4926 10.7888 38.1297 13.7699 38.4111M13 16C13.968 21.1346 15.3273 25.4609 18.2317 31.8247M13 7V10.5M13 10.5C13 10.5 11.5735 11.0265 11.5 12C11.4219 13.0349 13 13.75 13 13.75M13 10.5C13 10.5 14.4265 11.0265 14.5 12C14.5781 13.0349 13 13.75 13 13.75M32 22L25.2818 31.5M32 22L40.5366 34.5M32 22L29.9512 32.5M25.2818 31.5L21.5 27L18.2317 31.8247M28 42.5H46M28 42.5L29.2683 36M46 42.5V26M46 42.5L40.5366 34.5M46 26H48V18.5M46 26H40.5M48 18.5H39M48 18.5L46.5 15.5M39 18.5V26H40.5M39 18.5L40.5 15.5M40.5 26L40.5366 34.5M40.5 15.5H46.5M40.5 15.5V12M46.5 15.5V12M46.5 12H40.5M46.5 12L43.5 7L40.5 12M29.2683 36H37.5M29.2683 36L29.9512 32.5M33 39.5H40.5M29.9512 32.5H35M9 26H17M5.5 33.5H10.5M20 33.5H15.25M10.5 33.5L12 29.5H14L15.25 33.5M10.5 33.5H15.25M41.5 22.5C41.5 21.3954 42.3954 20.5 43.5 20.5C44.6046 20.5 45.5 21.3954 45.5 22.5C45.5 23.6046 44.6046 24.5 43.5 24.5C42.3954 24.5 41.5 23.6046 41.5 22.5Z" stroke="#1F1E48" stroke-width="1.2" stroke-linecap="round" stroke-linejoin="round"/>
</svg>
