<svg width="30" height="30" viewBox="0 0 30 30" fill="none" xmlns="http://www.w3.org/2000/svg">
<path fill-rule="evenodd" clip-rule="evenodd" d="M4.6875 8.4375C4.6875 7.74713 5.24714 7.1875 5.9375 7.1875H24.0625C24.7529 7.1875 25.3125 7.74713 25.3125 8.4375V24.0625C25.3125 25.961 23.7735 27.5 21.875 27.5H8.125C6.22652 27.5 4.6875 25.961 4.6875 24.0625V8.4375ZM19.375 12.1875C18.8573 12.1875 18.4375 11.7677 18.4375 11.25V5.3125C18.4375 3.41402 16.8985 1.875 15 1.875C13.1015 1.875 11.5625 3.41402 11.5625 5.3125V11.25C11.5625 11.7677 11.1427 12.1875 10.625 12.1875C10.1073 12.1875 9.6875 11.7677 9.6875 11.25V5.3125C9.6875 2.37849 12.066 0 15 0C17.934 0 20.3125 2.37849 20.3125 5.3125V11.25C20.3125 11.7677 19.8927 12.1875 19.375 12.1875Z" fill="white"/>
</svg>
