<svg width="25" height="25" viewBox="0 0 25 25" fill="none" xmlns="http://www.w3.org/2000/svg">
<path d="M16.2624 5C14.6428 5 13.2588 6.24358 12.4985 7.10093C11.7381 6.24358 10.3572 5 8.73836 5C5.94805 5 4 7.0951 4 10.0942C4 13.3987 6.41941 15.5346 8.76 17.6006C9.865 18.5769 11.0086 19.5858 11.8857 20.7045C12.0333 20.8918 12.2496 21 12.4768 21H12.5216C12.7496 21 12.9652 20.891 13.112 20.7045C13.9906 19.5858 15.1335 18.5761 16.2392 17.6006C18.579 15.5354 21 13.3995 21 10.0942C21 7.0951 19.052 5 16.2624 5Z" fill="#5D5AF6"/>
</svg>
