<svg width="24" height="24" viewBox="0 0 24 24" fill="none" xmlns="http://www.w3.org/2000/svg">
<path d="M4.5 4.5C3.70435 4.5 2.94129 4.81607 2.37868 5.37868C1.81607 5.94129 1.5 6.70435 1.5 7.5V9H22.5V7.5C22.5 6.70435 22.1839 5.94129 21.6213 5.37868C21.0587 4.81607 20.2956 4.5 19.5 4.5H4.5ZM1.5 16.5V10.5H22.5V16.5C22.5 17.2956 22.1839 18.0587 21.6213 18.6213C21.0587 19.1839 20.2956 19.5 19.5 19.5H4.5C3.70435 19.5 2.94129 19.1839 2.37868 18.6213C1.81607 18.0587 1.5 17.2956 1.5 16.5ZM15.75 15C15.5511 15 15.3603 15.079 15.2197 15.2197C15.079 15.3603 15 15.5511 15 15.75C15 15.9489 15.079 16.1397 15.2197 16.2803C15.3603 16.421 15.5511 16.5 15.75 16.5H18.75C18.9489 16.5 19.1397 16.421 19.2803 16.2803C19.421 16.1397 19.5 15.9489 19.5 15.75C19.5 15.5511 19.421 15.3603 19.2803 15.2197C19.1397 15.079 18.9489 15 18.75 15H15.75Z" fill="url(#paint0_linear_181_1474)"/>
<defs>
<linearGradient id="paint0_linear_181_1474" x1="-4.51034" y1="5.12069" x2="25.1111" y2="12.6068" gradientUnits="userSpaceOnUse">
<stop stop-color="#7C2F88"/>
<stop offset="1" stop-color="#D174FD"/>
</linearGradient>
</defs>
</svg>
