<svg width="22" height="16" viewBox="0 0 22 16" fill="none" xmlns="http://www.w3.org/2000/svg">
<path d="M2 0C1.46957 0 0.960859 0.210714 0.585786 0.585786C0.210714 0.960859 0 1.46957 0 2V13H2C2 13.7956 2.31607 14.5587 2.87868 15.1213C3.44129 15.6839 4.20435 16 5 16C5.79565 16 6.55871 15.6839 7.12132 15.1213C7.68393 14.5587 8 13.7956 8 13H14C14 13.7956 14.3161 14.5587 14.8787 15.1213C15.4413 15.6839 16.2044 16 17 16C17.7956 16 18.5587 15.6839 19.1213 15.1213C19.6839 14.5587 20 13.7956 20 13H21C21.5523 13 22 12.5523 22 12V8.33333C22 8.11696 21.9298 7.90643 21.8 7.73333L19.3 4.4C19.1111 4.14819 18.8148 4 18.5 4H16V2C16 0.895431 15.1046 0 14 0H2ZM16 5.5H18.0148C18.3212 5.5 18.6107 5.64044 18.8003 5.88107L20.47 8H16" fill="url(#paint0_linear_181_1479)"/>
<defs>
<linearGradient id="paint0_linear_181_1479" x1="-6.29655" y1="0.662069" x2="24.8015" y2="8.38104" gradientUnits="userSpaceOnUse">
<stop stop-color="#7C2F88"/>
<stop offset="1" stop-color="#D174FD"/>
</linearGradient>
</defs>
</svg>
