<svg width="18" height="22" viewBox="0 0 18 22" fill="none" xmlns="http://www.w3.org/2000/svg">
<path d="M4.83 21.1693C5.04326 21.368 5.32533 21.4762 5.61678 21.471C5.90824 21.4659 6.18631 21.3478 6.39243 21.1417C6.59855 20.9356 6.71662 20.6575 6.72176 20.3661C6.7269 20.0746 6.61872 19.7925 6.42 19.5793L3.84 16.9993H16.875C17.1734 16.9993 17.4595 16.8808 17.6705 16.6698C17.8815 16.4588 18 16.1727 18 15.8743C18 15.5759 17.8815 15.2898 17.6705 15.0788C17.4595 14.8678 17.1734 14.7493 16.875 14.7493H3.84L6.42 12.1693C6.61872 11.956 6.7269 11.674 6.72176 11.3825C6.71662 11.091 6.59855 10.813 6.39243 10.6068C6.18631 10.4007 5.90824 10.2827 5.61678 10.2775C5.32533 10.2724 5.04326 10.3806 4.83 10.5793L0.33 15.0793C0.119324 15.2902 0.000989914 15.5762 0.000989914 15.8743C0.000989914 16.1724 0.119324 16.4583 0.33 16.6693L4.83 21.1693ZM13.17 11.4193C13.067 11.5298 12.9428 11.6185 12.8048 11.68C12.6668 11.7414 12.5178 11.7745 12.3668 11.7772C12.2157 11.7798 12.0657 11.752 11.9256 11.6955C11.7855 11.6389 11.6583 11.5547 11.5514 11.4478C11.4446 11.341 11.3604 11.2138 11.3038 11.0737C11.2472 10.9336 11.2194 10.7836 11.2221 10.6325C11.2248 10.4814 11.2578 10.3325 11.3193 10.1945C11.3808 10.0565 11.4695 9.93227 11.58 9.82928L14.16 7.24928H1.125C0.826631 7.24928 0.540483 7.13075 0.329505 6.91978C0.118526 6.7088 0 6.42265 0 6.12428C0 5.82591 0.118526 5.53976 0.329505 5.32879C0.540483 5.11781 0.826631 4.99928 1.125 4.99928H14.16L11.58 2.41928C11.3813 2.20602 11.2731 1.92395 11.2782 1.6325C11.2834 1.34105 11.4014 1.06297 11.6076 0.856849C11.8137 0.650729 12.0918 0.532661 12.3832 0.527519C12.6747 0.522377 12.9567 0.630561 13.17 0.829281L17.67 5.32928C17.8807 5.54022 17.999 5.82616 17.999 6.12428C17.999 6.42241 17.8807 6.70834 17.67 6.91928L13.17 11.4193Z" fill="url(#paint0_linear_181_1477)"/>
<defs>
<linearGradient id="paint0_linear_181_1477" x1="-5.15172" y1="1.39399" x2="21.2248" y2="5.48619" gradientUnits="userSpaceOnUse">
<stop stop-color="#7C2F88"/>
<stop offset="1" stop-color="#D174FD"/>
</linearGradient>
</defs>
</svg>
