<svg width="22" height="28" viewBox="0 0 22 28" fill="none" xmlns="http://www.w3.org/2000/svg">
<path fill-rule="evenodd" clip-rule="evenodd" d="M0.6875 8.4375C0.6875 7.74713 1.24714 7.1875 1.9375 7.1875H20.0625C20.7529 7.1875 21.3125 7.74713 21.3125 8.4375V24.0625C21.3125 25.961 19.7735 27.5 17.875 27.5H4.125C2.22652 27.5 0.6875 25.961 0.6875 24.0625V8.4375ZM15.375 12.1875C14.8573 12.1875 14.4375 11.7677 14.4375 11.25V5.3125C14.4375 3.41402 12.8985 1.875 11 1.875C9.1015 1.875 7.5625 3.41402 7.5625 5.3125V11.25C7.5625 11.7677 7.14275 12.1875 6.625 12.1875C6.10725 12.1875 5.6875 11.7677 5.6875 11.25V5.3125C5.6875 2.37849 8.066 0 11 0C13.934 0 16.3125 2.37849 16.3125 5.3125V11.25C16.3125 11.7677 15.8927 12.1875 15.375 12.1875Z" fill="black"/>
</svg>
