<svg width="116" height="61" viewBox="0 0 116 61" fill="none" xmlns="http://www.w3.org/2000/svg">
<path d="M31.7347 19.5657C32.3723 19.7024 32.9644 19.9301 33.511 20.2489C34.0803 20.545 34.57 20.9094 34.9799 21.3421C35.4126 21.7748 35.7542 22.2758 36.0047 22.8451C36.2552 23.4144 36.3804 24.0407 36.3804 24.7239C36.3804 25.7487 36.1185 26.7166 35.5948 27.6275C35.071 28.5157 34.3992 29.3014 33.5793 29.9846C32.7822 30.6678 31.8827 31.2143 30.8807 31.6242C29.8786 32.0114 28.8994 32.205 27.9429 32.205C27.4191 32.205 26.9181 32.1253 26.4399 31.9658C25.9844 31.8064 25.5745 31.5901 25.2101 31.3168C24.8457 31.0207 24.5497 30.6678 24.3219 30.2578C24.117 29.8479 24.0145 29.3811 24.0145 28.8573C24.0145 28.0602 24.2081 27.3428 24.5952 26.7052C25.0051 26.0448 25.4151 25.5096 25.825 25.0997C25.9844 24.9403 26.1666 24.7695 26.3715 24.5873C26.5765 24.4051 26.7701 24.2457 26.9523 24.109C27.1345 23.9496 27.2939 23.8244 27.4305 23.7333C27.5671 23.6422 27.6469 23.5966 27.6696 23.5966C27.7835 23.5966 27.8404 23.665 27.8404 23.8016C27.8404 23.8699 27.6924 24.0066 27.3963 24.2115C27.1231 24.3937 26.7245 24.7353 26.2007 25.2363C25.677 25.7373 25.2443 26.3067 24.9027 26.9443C24.5838 27.582 24.4244 28.1741 24.4244 28.7206C24.4244 29.6771 24.7319 30.4286 25.3467 30.9752C25.9844 31.5218 26.7701 31.795 27.7038 31.795C28.6603 31.795 29.5257 31.5559 30.3 31.0777C31.097 30.5767 31.7802 29.939 32.3496 29.1647C32.9417 28.3904 33.3971 27.5478 33.716 26.6369C34.0348 25.7259 34.1942 24.8378 34.1942 23.9724C34.1942 23.1981 34.1031 22.5491 33.9209 22.0253C33.7387 21.5015 33.511 21.0802 33.2377 20.7613C32.9644 20.4197 32.657 20.1806 32.3154 20.044C31.9738 19.9073 31.6322 19.839 31.2906 19.839C31.0173 19.839 30.801 19.8618 30.6416 19.9073C30.5049 19.9529 30.3569 19.9984 30.1975 20.044C30.0608 20.0895 29.89 20.1351 29.6851 20.1806C29.5029 20.2262 29.241 20.2489 28.8994 20.2489C28.4667 20.2489 28.2503 20.0895 28.2503 19.7707C28.2503 19.5885 28.3414 19.4519 28.5236 19.3608C28.7286 19.2697 29.0816 19.2241 29.5826 19.2241C29.9242 19.2241 30.1747 19.2355 30.3341 19.2583C30.5163 19.2811 30.6757 19.2925 30.8124 19.2925C31.4956 19.2925 32.1218 19.0989 32.6912 18.7117C33.2605 18.3246 33.7387 17.8464 34.1259 17.277C34.513 16.6849 34.8091 16.0473 35.014 15.3641C35.2418 14.6809 35.3556 14.0318 35.3556 13.4169C35.3556 12.5516 35.2304 11.8456 34.9799 11.299C34.7294 10.7525 34.3081 10.297 33.716 9.93262C32.6684 10.6386 31.7347 11.5154 30.9148 12.5629C30.095 13.5877 29.3435 14.6809 28.6603 15.8423C27.9771 17.0037 27.328 18.1766 26.7131 19.3608C26.0983 20.545 25.472 21.6495 24.8343 22.6743C24.1511 23.7674 23.3541 24.8833 22.4431 26.022C21.5322 27.1607 20.5302 28.1855 19.4371 29.0964C18.3439 30.0073 17.1597 30.7589 15.8844 31.351C14.6319 31.9203 13.2996 32.205 11.8877 32.205C11.2956 32.205 10.749 32.1366 10.248 32C9.747 31.8406 9.30292 31.6242 8.91577 31.351C8.5514 31.0777 8.26673 30.7702 8.06177 30.4286C7.85681 30.0643 7.75433 29.6771 7.75433 29.2672C7.75433 28.8801 7.89097 28.5612 8.16425 28.3107C8.43753 28.0374 8.76774 27.9008 9.15489 27.9008C9.9975 27.9008 10.4188 28.3107 10.4188 29.1306C10.4188 29.3583 10.3619 29.5746 10.248 29.7796C10.1341 29.9618 10.0772 30.144 10.0772 30.3262C10.0772 30.7133 10.2252 31.0549 10.5213 31.351C10.8173 31.647 11.3297 31.795 12.0585 31.795C12.9694 31.795 13.869 31.647 14.7571 31.351C15.6453 31.0549 16.5221 30.5425 17.3875 29.8138C18.2528 29.085 19.1296 28.1171 20.0178 26.9102C20.9287 25.6804 21.8624 24.1318 22.8189 22.2644C23.5704 20.8069 24.3106 19.4747 25.0393 18.2677C25.7908 17.0607 26.5765 15.9448 27.3963 14.92C28.239 13.8952 29.1385 12.9501 30.095 12.0847C31.0515 11.2193 32.099 10.4109 33.2377 9.65934C32.2357 9.20387 31.1767 8.88504 30.0608 8.70286C28.9449 8.52067 27.829 8.42957 26.7131 8.42957C25.4378 8.42957 24.1284 8.58899 22.7847 8.90781C23.3085 9.38606 23.6843 10.0123 23.912 10.7866C24.1625 11.5609 24.2878 12.2897 24.2878 12.9729C24.2878 14.2026 24.0031 15.4552 23.4338 16.7305C22.8872 18.0058 22.1471 19.1558 21.2134 20.1806C20.2797 21.2054 19.1979 22.048 17.9682 22.7085C16.7384 23.3461 15.4517 23.665 14.1081 23.665C13.0833 23.665 12.2065 23.3575 11.4778 22.7426C10.7718 22.1277 10.4188 21.2168 10.4188 20.0098C10.4188 18.7117 10.7832 17.4592 11.5119 16.2522C12.2635 15.0225 13.2085 13.9066 14.3472 12.9045C15.4859 11.8797 16.727 11.0144 18.0707 10.3084C19.4371 9.57963 20.7351 9.06723 21.9649 8.77118C21.4183 8.33848 20.8148 8.03104 20.1544 7.84886C19.494 7.64389 18.8222 7.54141 18.139 7.54141C17.228 7.54141 16.3513 7.67805 15.5087 7.95133C14.6888 8.20184 13.9145 8.54344 13.1858 8.97614C12.4798 9.38606 11.8421 9.85291 11.2728 10.3767C10.7035 10.9005 10.2366 11.4357 9.87225 11.9822C9.34846 12.7337 8.94993 13.36 8.67665 13.861C8.42614 14.3393 8.24396 14.7264 8.13009 15.0225C8.01622 15.2957 7.9479 15.4893 7.92513 15.6032C7.90235 15.6943 7.85681 15.7398 7.78849 15.7398C7.67462 15.7398 7.61769 15.6829 7.61769 15.569C7.61769 15.4779 7.75433 15.0908 8.02761 14.4076C8.32366 13.7016 8.82468 12.859 9.53065 11.8797C9.98612 11.2421 10.5213 10.6386 11.1362 10.0693C11.7738 9.47715 12.457 8.96475 13.1858 8.53206C13.9373 8.09936 14.7344 7.75776 15.577 7.50726C16.4196 7.25675 17.285 7.13149 18.1731 7.13149C18.9474 7.13149 19.699 7.25675 20.4277 7.50726C21.1792 7.75776 21.851 8.12213 22.4431 8.60037C23.1947 8.41819 23.9348 8.28155 24.6635 8.19046C25.3923 8.07659 26.121 8.01966 26.8498 8.01966C29.2638 8.01966 31.5639 8.46374 33.7501 9.3519C34.1373 9.14694 34.5358 8.93059 34.9457 8.70286C35.3784 8.47512 35.7769 8.36126 36.1413 8.36126C36.2324 8.36126 36.278 8.4068 36.278 8.4979C36.278 8.54344 36.2324 8.58899 36.1413 8.63454C36.0502 8.65731 35.9136 8.70286 35.7314 8.77118C35.572 8.81672 35.367 8.90782 35.1165 9.04446C34.866 9.15832 34.57 9.32912 34.2284 9.55686C35.1621 10.0351 35.9136 10.6614 36.4829 11.4357C37.0523 12.21 37.3369 13.1095 37.3369 14.1343C37.3369 14.863 37.1661 15.5235 36.8245 16.1156C36.4829 16.7077 36.0388 17.2315 35.4923 17.6869C34.9457 18.1424 34.3422 18.5182 33.6818 18.8142C33.0214 19.1103 32.3723 19.338 31.7347 19.4974V19.5657ZM10.9654 20.1123C10.9654 21.0232 11.2159 21.752 11.7169 22.2985C12.2407 22.8451 13.0264 23.1184 14.0739 23.1184C15.1898 23.1184 16.2943 22.754 17.3875 22.0253C18.4806 21.2737 19.4598 20.3628 20.3252 19.2925C21.2134 18.1993 21.9194 17.0379 22.4431 15.8081C22.9897 14.5784 23.263 13.4625 23.263 12.4605C23.263 11.6406 23.1719 10.946 22.9897 10.3767C22.8303 9.80736 22.6026 9.36328 22.3065 9.04446C21.1678 9.31774 19.9381 9.7732 18.6172 10.4109C17.2964 11.0485 16.0666 11.8456 14.9279 12.8021C13.7893 13.7585 12.8442 14.8517 12.0927 16.0814C11.3411 17.3112 10.9654 18.6548 10.9654 20.1123ZM51.0807 11.4357C48.8489 14.9428 46.9815 17.8691 45.4785 20.2148C43.9982 22.5604 42.7912 24.4848 41.8575 25.9878C40.9466 27.4681 40.2975 28.6068 39.9104 29.4038C39.5232 30.1781 39.3297 30.7589 39.3297 31.146C39.3297 31.2599 39.3752 31.3623 39.4663 31.4534C39.5802 31.5445 39.7168 31.5901 39.8762 31.5901C40.4 31.5901 40.9694 31.3737 41.5842 30.941C42.2219 30.5083 42.9734 29.8593 43.8388 28.9939C44.6131 28.2196 45.1027 27.6844 45.3077 27.3884C45.5354 27.0696 45.6948 26.9102 45.7859 26.9102C45.8998 26.9102 45.9567 26.9671 45.9567 27.081C45.9567 27.1037 45.9112 27.172 45.8201 27.2859C45.729 27.3998 45.6151 27.5364 45.4785 27.6958C45.3418 27.8552 45.1938 28.0147 45.0344 28.1741C44.8978 28.3335 44.7725 28.4815 44.6586 28.6182C43.6566 29.6885 42.7571 30.5197 41.96 31.1118C41.1629 31.7039 40.4342 32 39.7738 32C39.1816 32 38.7831 31.8292 38.5782 31.4876C38.396 31.146 38.3049 30.7475 38.3049 30.292C38.3049 29.791 38.3732 29.3355 38.5098 28.9256C38.6465 28.4929 38.8628 28.0374 39.1589 27.5592C39.4549 27.0582 39.8193 26.4888 40.252 25.8512C40.6847 25.1908 41.1971 24.3709 41.7892 23.3917L41.7209 23.3234C41.4248 23.665 41.1174 24.0293 40.7986 24.4165C40.4797 24.8036 40.0357 25.3046 39.4663 25.9195C39.1475 26.2839 38.8856 26.5799 38.6806 26.8077C38.4984 27.0126 38.3504 27.1834 38.2366 27.3201C38.1227 27.4339 38.043 27.5136 37.9974 27.5592C37.9519 27.582 37.9063 27.5934 37.8608 27.5934C37.7697 27.5934 37.7242 27.5364 37.7242 27.4226C37.7242 27.3542 37.9291 27.0923 38.339 26.6369C38.7717 26.1814 39.3183 25.5665 39.9787 24.7922C40.6619 23.9952 41.4134 23.0615 42.2333 21.9911C43.0759 20.898 43.9071 19.691 44.727 18.3701L48.8262 11.6748L51.0807 11.4357ZM54.3833 24.1432C54.3833 24.7808 54.11 25.3616 53.5635 25.8854C53.0169 26.3864 52.3679 26.8304 51.6163 27.2176C50.8648 27.582 50.0905 27.8894 49.2935 28.1399C48.4964 28.3904 47.8474 28.5612 47.3463 28.6523C47.3008 28.8345 47.2666 29.0281 47.2439 29.233C47.2211 29.4152 47.2097 29.5974 47.2097 29.7796C47.2097 30.44 47.3122 30.9069 47.5171 31.1802C47.7449 31.4307 48.1206 31.5673 48.6444 31.5901C49.0999 31.6129 49.7489 31.4307 50.5915 31.0435C51.4342 30.6336 52.3793 29.9162 53.4268 28.8914C54.0873 28.2082 54.5313 27.7072 54.7591 27.3884C55.0096 27.0696 55.169 26.9102 55.2373 26.9102C55.3512 26.9102 55.4081 26.9785 55.4081 27.1151C55.4081 27.1607 55.3284 27.2745 55.169 27.4567C55.0324 27.6389 54.8502 27.8666 54.6224 28.1399C54.3947 28.3904 54.1328 28.6637 53.8367 28.9598C53.5635 29.2558 53.3016 29.5177 53.0511 29.7454C52.1857 30.5425 51.3886 31.1118 50.6599 31.4534C49.9539 31.795 49.2024 31.9772 48.4053 32C47.9271 32 47.5171 31.8975 47.1755 31.6926C46.8567 31.4876 46.5834 31.2143 46.3557 30.8727C46.128 30.5311 45.9572 30.144 45.8433 29.7113C45.7522 29.2786 45.7067 28.8345 45.7067 28.379C45.7067 28.1285 45.718 27.9122 45.7408 27.73C45.7864 27.5478 45.8091 27.4339 45.8091 27.3884C45.8091 27.3656 45.7978 27.3428 45.775 27.3201C45.7067 27.3884 45.6725 27.4226 45.6725 27.4226C45.6497 27.4226 45.6156 27.3998 45.57 27.3542C45.5245 27.3087 45.5017 27.2631 45.5017 27.2176C45.5017 27.1948 45.5472 27.1151 45.6383 26.9785C45.7522 26.8418 45.8775 26.6938 46.0141 26.5344C46.1735 26.375 46.3215 26.227 46.4582 26.0903C46.5948 25.9309 46.6973 25.817 46.7656 25.7487C47.7221 24.7922 48.7127 24.0179 49.7375 23.4258C50.7623 22.8109 51.7416 22.5035 52.6753 22.5035C53.1991 22.5035 53.609 22.6629 53.9051 22.9818C54.2239 23.2778 54.3833 23.665 54.3833 24.1432ZM52.6753 22.9134C52.2198 22.9134 51.7188 23.107 51.1723 23.4942C50.6257 23.8585 50.0905 24.314 49.5667 24.8606C49.0657 25.4071 48.6217 25.9878 48.2345 26.6027C47.8474 27.2176 47.5968 27.7642 47.483 28.2424C48.0523 28.1741 48.6786 28.0147 49.3618 27.7642C50.045 27.4909 50.6826 27.1493 51.2747 26.7394C51.8669 26.3067 52.3565 25.8284 52.7436 25.3046C53.1535 24.7581 53.3585 24.1774 53.3585 23.5625C53.3585 23.1298 53.1308 22.9134 52.6753 22.9134ZM59.4499 30.1895L59.5183 30.2578C60.0876 29.8707 60.5658 29.4608 60.953 29.0281C61.3401 28.5954 61.6817 28.2082 61.9778 27.8666C62.3422 27.4795 62.5585 27.229 62.6268 27.1151C62.6951 26.9785 62.7635 26.9102 62.8318 26.9102C62.9456 26.9102 63.0026 26.9785 63.0026 27.1151C63.0026 27.1607 62.8546 27.3656 62.5585 27.73C62.2624 28.0716 61.9436 28.436 61.602 28.8231C60.6683 29.8707 59.7802 30.6678 58.9375 31.2143C58.0949 31.7381 57.1954 32 56.2389 32C55.8517 32 55.5557 31.9886 55.3507 31.9658C55.1458 31.9203 54.9294 31.8064 54.7017 31.6242C54.5651 31.5104 54.4398 31.3396 54.3259 31.1118C54.2121 30.8613 54.1551 30.645 54.1551 30.4628C54.1551 29.8251 54.4398 29.5063 55.0091 29.5063C55.1913 29.5063 55.3507 29.5633 55.4874 29.6771C55.6468 29.7682 55.7265 29.8935 55.7265 30.0529C55.7265 30.2351 55.7037 30.3603 55.6582 30.4286C55.6126 30.497 55.5557 30.5539 55.4874 30.5994C55.4191 30.645 55.3621 30.7019 55.3166 30.7702C55.271 30.8158 55.2483 30.9183 55.2483 31.0777C55.2483 31.4193 55.4418 31.5901 55.829 31.5901C56.2389 31.5901 56.6488 31.3851 57.0587 30.9752C57.4687 30.5653 57.833 30.0757 58.1519 29.5063C58.4935 28.9142 58.7667 28.2993 58.9717 27.6617C59.1767 27.0012 59.2791 26.4433 59.2791 25.9878C59.2791 25.168 59.2791 24.4506 59.2791 23.8358C59.3019 23.2209 59.3702 22.8679 59.4841 22.7768L59.4158 22.7085C59.3019 22.7768 59.0742 23.0045 58.7326 23.3917C58.391 23.756 58.0038 24.1774 57.5711 24.6556C57.1612 25.1338 56.7513 25.6121 56.3414 26.0903C55.9542 26.5458 55.6582 26.8874 55.4532 27.1151C55.3166 27.2973 55.2141 27.3884 55.1458 27.3884C55.0547 27.3884 55.0091 27.3428 55.0091 27.2518C55.0091 27.1379 55.1344 26.9443 55.3849 26.671C55.6582 26.3978 56.0339 25.9651 56.5122 25.373C56.7171 25.1224 56.9676 24.8264 57.2637 24.4848C57.5825 24.1204 57.89 23.7788 58.186 23.46C58.5048 23.1184 58.7895 22.8223 59.04 22.5718C59.2905 22.3213 59.4385 22.1847 59.4841 22.1619C59.5069 22.1619 59.541 22.105 59.5866 21.9911C59.6321 21.8772 59.7004 21.7634 59.7915 21.6495C59.8826 21.5129 59.9965 21.399 60.1331 21.3079C60.2698 21.194 60.4292 21.1371 60.6114 21.1371C60.9985 21.1371 61.1921 21.3079 61.1921 21.6495C61.1921 21.9683 61.0441 22.1961 60.748 22.3327C60.452 22.4693 60.1445 22.5946 59.8257 22.7085C59.7801 22.8907 59.746 23.0273 59.7232 23.1184C59.7004 23.1867 59.6891 23.312 59.6891 23.4942C59.6891 24.1318 59.7232 24.667 59.7915 25.0997C59.8826 25.5324 59.9623 25.9195 60.0307 26.2611C60.1218 26.6027 60.2015 26.9215 60.2698 27.2176C60.3609 27.5136 60.4064 27.8325 60.4064 28.1741C60.4064 28.584 60.3153 28.9598 60.1331 29.3014C59.951 29.643 59.7232 29.9618 59.4499 30.2578V30.1895ZM74.4011 24.4848C74.0367 24.4848 73.7976 24.3823 73.6837 24.1774C73.5926 23.9496 73.5357 23.6422 73.5129 23.255C73.1258 23.3234 72.8297 23.4714 72.6248 23.6991C72.4426 23.9041 72.2148 24.2343 71.9416 24.6898C71.6455 25.1452 71.2242 25.5438 70.6776 25.8854C70.1539 26.2042 69.6187 26.4205 69.0721 26.5344V26.6027C69.2999 26.6483 69.5162 26.7507 69.7212 26.9102C69.9489 27.0468 70.1425 27.2176 70.3019 27.4226C70.4841 27.6275 70.6207 27.8439 70.7118 28.0716C70.8257 28.2993 70.8826 28.5043 70.8826 28.6865C70.8826 28.8687 70.8371 29.085 70.746 29.3355C70.6776 29.586 70.5979 29.8365 70.5068 30.087C70.4158 30.3148 70.3247 30.5197 70.2336 30.7019C70.1652 30.8841 70.1311 31.0094 70.1311 31.0777C70.1311 31.2143 70.1766 31.3396 70.2677 31.4534C70.3816 31.5445 70.5068 31.5901 70.6435 31.5901C70.9168 31.5901 71.2128 31.499 71.5316 31.3168C71.8505 31.1118 72.1693 30.8841 72.4881 30.6336C72.8297 30.3831 73.1372 30.1212 73.4104 29.8479C73.6837 29.5746 73.9001 29.3469 74.0595 29.1647C74.5377 28.6637 74.9021 28.2766 75.1526 28.0033C75.4031 27.7072 75.5853 27.4795 75.6992 27.3201C75.8358 27.1607 75.9155 27.0582 75.9383 27.0126C75.9838 26.9671 76.0294 26.9443 76.0749 26.9443C76.2116 26.9443 76.2799 27.0012 76.2799 27.1151C76.2799 27.1379 76.223 27.2176 76.1091 27.3542C76.018 27.4909 75.8814 27.6617 75.6992 27.8666C75.5398 28.0488 75.3576 28.2652 75.1526 28.5157C74.9477 28.7434 74.7427 28.9598 74.5377 29.1647C74.2417 29.4835 73.9115 29.8138 73.5471 30.1554C73.2055 30.497 72.8525 30.8044 72.4881 31.0777C72.1238 31.351 71.7708 31.5787 71.4292 31.7609C71.0876 31.9203 70.7801 32 70.5068 32C70.188 32 69.9147 31.9203 69.687 31.7609C69.4593 31.5787 69.2657 31.3623 69.1063 31.1118C68.9696 30.8386 68.8672 30.5539 68.7988 30.2578C68.7305 29.9618 68.6964 29.6885 68.6964 29.438C68.6964 29.1875 68.7305 28.9598 68.7988 28.7548C68.8672 28.5498 68.9469 28.3676 69.038 28.2082C69.1291 28.026 69.2088 27.8666 69.2771 27.73C69.3454 27.5706 69.3796 27.4226 69.3796 27.2859C69.3796 27.1493 69.3112 27.024 69.1746 26.9102C69.038 26.7963 68.9013 26.7394 68.7647 26.7394C68.5825 26.7394 68.3889 26.8191 68.184 26.9785C68.0018 27.1379 67.7513 27.2176 67.4324 27.2176C67.0908 27.2176 66.92 27.081 66.92 26.8077C66.92 26.6938 66.9884 26.5799 67.125 26.4661C67.2844 26.3294 67.6146 26.2611 68.1156 26.2611C68.2067 26.2611 68.2864 26.2725 68.3548 26.2953C68.4459 26.318 68.5825 26.3294 68.7647 26.3294C68.9013 26.3294 69.0835 26.2725 69.3112 26.1586C69.5618 26.0448 69.8236 25.8854 70.0969 25.6804C70.393 25.4754 70.6776 25.2363 70.9509 24.963C71.247 24.6898 71.5203 24.3937 71.7708 24.0749C72.2718 23.4372 72.6817 23.0159 73.0005 22.8109C73.3194 22.606 73.6723 22.5035 74.0595 22.5035C74.4466 22.5035 74.7541 22.606 74.9818 22.8109C75.2323 22.9931 75.3576 23.2436 75.3576 23.5625C75.3576 23.8585 75.2551 24.0863 75.0501 24.2457C74.8679 24.4051 74.6516 24.4848 74.4011 24.4848ZM75.4259 11.4357L63.4699 31.8634L61.147 32L66.6126 23.1526L66.5443 23.0842C66.4076 23.2436 66.2368 23.4372 66.0319 23.665C65.8497 23.8927 65.6561 24.1432 65.4512 24.4165C65.2462 24.667 65.0299 24.9175 64.8021 25.168C64.5972 25.3957 64.4036 25.6121 64.2214 25.817C63.8343 26.227 63.5268 26.5572 63.2991 26.8077C63.0941 27.0582 62.9347 27.2518 62.8208 27.3884C62.707 27.525 62.6273 27.6161 62.5817 27.6617C62.5362 27.6844 62.502 27.6958 62.4792 27.6958C62.3881 27.6958 62.3426 27.6275 62.3426 27.4909C62.3426 27.4453 62.3654 27.3884 62.4109 27.3201C62.4792 27.229 62.6159 27.081 62.8208 26.876C63.0258 26.6483 63.3105 26.318 63.6748 25.8854C64.062 25.4527 64.5858 24.8606 65.2462 24.109C65.8155 23.4486 66.3165 22.8451 66.7492 22.2985C67.1819 21.7292 67.5805 21.1713 67.9448 20.6247C68.332 20.0781 68.6964 19.5202 69.038 18.9509C69.4023 18.3588 69.7895 17.7097 70.1994 17.0037C70.6093 16.2978 71.0648 15.5121 71.5658 14.6467C72.0668 13.7813 72.6475 12.7793 73.308 11.6406L75.4259 11.4357Z" fill="url(#paint0_linear_214_86)"/>
<path d="M71.5335 33.9697C70.4632 33.9697 69.3928 34.1518 68.3225 34.5162C67.2749 34.8806 66.3184 35.393 65.453 36.0534C64.5876 36.6911 63.8817 37.454 63.3351 38.3421C62.8113 39.2075 62.5494 40.164 62.5494 41.2116C62.5494 42.0997 62.7658 42.9196 63.1985 43.6711C63.6312 44.3999 64.2346 45.0261 65.0089 45.5499C65.7832 46.0737 66.7056 46.4836 67.7759 46.7797C68.8463 47.0757 70.0191 47.2238 71.2944 47.2238C73.1163 47.2238 74.7559 46.996 76.2134 46.5406C77.6709 46.0623 78.9918 45.3905 80.176 44.5251C81.3602 43.6369 82.4306 42.578 83.387 41.3482C84.3435 40.0957 85.2545 38.6837 86.1198 37.1124C85.1634 37.3857 84.298 37.7728 83.5237 38.2738C82.7494 38.7748 82.0776 39.2872 81.5082 39.811C81.03 40.2665 80.7453 40.5853 80.6542 40.7675C80.5631 40.9269 80.472 41.0066 80.381 41.0066C80.2671 41.0066 80.2102 40.9383 80.2102 40.8017C80.2102 40.7561 80.3468 40.5625 80.6201 40.2209C80.9161 39.8793 81.326 39.4922 81.8498 39.0595C82.3964 38.604 83.0568 38.1486 83.8311 37.6931C84.6054 37.2376 85.4822 36.8846 86.4614 36.6341C86.9169 35.9282 87.3724 35.2222 87.8278 34.5162C88.3061 33.8102 88.7616 33.1384 89.1942 32.5008C89.6497 31.8631 90.071 31.2824 90.4582 30.7586C90.8681 30.2348 91.2438 29.8135 91.5854 29.4947C92.1548 28.9481 92.7013 28.4699 93.2251 28.06C93.7717 27.6273 94.2613 27.2629 94.694 26.9668C95.1495 26.6708 95.5252 26.4431 95.8213 26.2836C96.1401 26.1242 96.3451 26.0445 96.4362 26.0445C96.5273 26.0445 96.5728 26.0901 96.5728 26.1812C96.5728 26.295 96.3451 26.4772 95.8896 26.7277C95.4341 26.9555 94.842 27.3882 94.1133 28.0258C93.6123 28.4813 93.1113 29.0734 92.6102 29.8021C92.1092 30.5081 91.6196 31.2596 91.1414 32.0567C90.6859 32.8538 90.2646 33.6394 89.8774 34.4137C89.4903 35.1653 89.1487 35.8143 88.8526 36.3609C89.4675 36.2242 90.0824 36.0762 90.6973 35.9168C91.3349 35.7346 91.9384 35.5524 92.5078 35.3702C93.0771 35.1653 93.5895 34.9717 94.045 34.7895C94.5004 34.6073 94.8762 34.4365 95.1722 34.2771C95.3544 34.186 95.4911 34.1063 95.5822 34.038C95.6733 33.9469 95.7644 33.9013 95.8555 33.9013C96.0149 33.9013 96.0946 33.9697 96.0946 34.1063C96.0946 34.1518 95.9465 34.334 95.6505 34.6529C95.3772 34.9489 95.0356 35.3702 94.6257 35.9168C94.2158 36.4406 93.7945 37.0668 93.3618 37.7956C92.9291 38.5243 92.5647 39.3214 92.2686 40.1868C91.8815 40.369 91.4146 40.5739 90.8681 40.8017C90.3215 41.0294 89.7864 41.2799 89.2626 41.5532L89.1942 41.4849C89.3081 41.1205 89.5358 40.6878 89.8774 40.1868C90.219 39.663 90.6062 39.1278 91.0389 38.5813C91.4944 38.0119 91.9726 37.4426 92.4736 36.8733C92.9974 36.3039 93.4984 35.7688 93.9766 35.2677L93.9083 35.1994C93.0885 35.5638 92.2231 35.8598 91.3122 36.0876C90.424 36.3153 89.5131 36.543 88.5794 36.7708C87.6912 38.456 86.655 39.9704 85.4708 41.3141C84.2866 42.6577 82.9543 43.7964 81.4741 44.7301C80.0166 45.6638 78.4224 46.3811 76.6917 46.8822C74.9837 47.3832 73.1618 47.6337 71.2261 47.6337C69.928 47.6337 68.7096 47.4743 67.5709 47.1554C66.4323 46.8366 65.4416 46.3811 64.599 45.789C63.7564 45.1741 63.0846 44.434 62.5836 43.5686C62.1053 42.7032 61.8662 41.7126 61.8662 40.5967C61.8662 39.5264 62.1167 38.5243 62.6177 37.5906C63.1415 36.6341 63.8247 35.8143 64.6673 35.1311C65.5327 34.4251 66.512 33.8786 67.6051 33.4914C68.6982 33.0815 69.8369 32.8765 71.0211 32.8765C71.7726 32.8765 72.5355 32.979 73.3098 33.184C74.1069 33.3662 74.8243 33.6622 75.4619 34.0721C76.1223 34.4821 76.6575 35.0058 77.0674 35.6435C77.5001 36.2812 77.7165 37.0441 77.7165 37.9322C77.7165 38.8659 77.5001 39.6972 77.0674 40.4259C76.6347 41.1319 76.0654 41.7354 75.3594 42.2364C74.6535 42.7374 73.8678 43.1132 73.0024 43.3637C72.137 43.6142 71.2716 43.7394 70.4062 43.7394C69.8597 43.7394 69.3245 43.6825 68.8007 43.5686C68.2997 43.4548 67.8442 43.3295 67.4343 43.1929C67.0472 43.0335 66.7397 42.8854 66.512 42.7488C66.2842 42.6121 66.1704 42.5097 66.1704 42.4413C66.1704 42.2592 66.2159 42.1681 66.307 42.1681C66.3753 42.1681 66.5006 42.2364 66.6828 42.373C66.865 42.4869 67.1269 42.6121 67.4685 42.7488C67.8101 42.8854 68.2314 43.0221 68.7324 43.1587C69.2562 43.2726 69.8597 43.3295 70.5429 43.3295C71.3172 43.3295 72.0915 43.2156 72.8657 42.9879C73.6628 42.7602 74.3802 42.43 75.0178 41.9973C75.6555 41.5418 76.1679 40.9839 76.555 40.3234C76.965 39.6402 77.1699 38.8659 77.1699 38.0005C77.1699 36.7936 76.6917 35.8257 75.7352 35.0969C74.8015 34.3454 73.4009 33.9697 71.5335 33.9697ZM87.1446 24.7464C85.3228 24.7464 83.7286 24.9286 82.3622 25.293C81.0186 25.6574 79.9027 26.1356 79.0146 26.7277C78.1264 27.2971 77.4546 27.9461 76.9991 28.6749C76.5664 29.4036 76.3501 30.1323 76.3501 30.8611C76.3501 31.7037 76.6575 32.3869 77.2724 32.9107C77.8873 33.4345 78.6957 33.6964 79.6978 33.6964C80.5176 33.6964 81.3033 33.5939 82.0548 33.3889C82.8063 33.1612 83.5123 32.8765 84.1727 32.5349C84.8559 32.1706 85.4822 31.7606 86.0515 31.3052C86.6209 30.8497 87.1333 30.3829 87.5887 29.9046C87.9531 29.4947 88.2492 29.1303 88.4769 28.8115C88.7274 28.4927 88.921 28.2308 89.0576 28.0258C89.1942 27.7981 89.2967 27.6273 89.365 27.5134C89.4334 27.3995 89.4903 27.3426 89.5358 27.3426C89.6042 27.3426 89.6497 27.3654 89.6725 27.4109C89.718 27.4565 89.7408 27.502 89.7408 27.5476C89.7408 27.5703 89.6497 27.7753 89.4675 28.1625C89.3081 28.5268 89.0462 28.9709 88.6818 29.4947C88.3402 30.0185 87.9076 30.5878 87.3838 31.2027C86.8828 31.8176 86.302 32.3869 85.6416 32.9107C84.9812 33.4345 84.2297 33.8672 83.387 34.2088C82.5672 34.5504 81.679 34.7212 80.7226 34.7212C79.971 34.7212 79.2878 34.6187 78.673 34.4137C78.0808 34.186 77.5684 33.9013 77.1358 33.5597C76.7031 33.2181 76.3728 32.8196 76.1451 32.3641C75.9174 31.9087 75.8035 31.4418 75.8035 30.9636C75.8035 30.4626 75.8946 29.9502 76.0768 29.4264C76.2818 28.8798 76.612 28.3446 77.0674 27.8209C77.5457 27.2971 78.1606 26.796 78.9121 26.3178C79.6636 25.8168 80.6087 25.3613 81.7474 24.9514C82.385 24.7237 83.0568 24.5415 83.7628 24.4048C84.4915 24.2454 85.4025 24.1316 86.4956 24.0632C87.5887 23.9722 88.9437 23.9152 90.5606 23.8924C92.2003 23.8697 94.2727 23.8583 96.7778 23.8583C97.9164 23.8583 98.8957 23.8241 99.7155 23.7558C100.558 23.6875 101.264 23.6192 101.833 23.5508C102.403 23.4825 102.847 23.4142 103.166 23.3459C103.507 23.2776 103.769 23.2434 103.951 23.2434C103.997 23.2434 104.02 23.3003 104.02 23.4142C104.02 23.4825 103.906 23.6419 103.678 23.8924C103.45 24.1202 103.109 24.3593 102.653 24.6098C102.221 24.8603 101.674 25.088 101.014 25.293C100.353 25.4752 99.5903 25.5663 98.7249 25.5663C97.7684 25.5663 96.8575 25.5321 95.9921 25.4638C95.1267 25.3727 94.2385 25.2816 93.3276 25.1905C92.4394 25.0767 91.4944 24.9742 90.4923 24.8831C89.4903 24.792 88.3744 24.7464 87.1446 24.7464ZM94.5803 47.4287C94.0565 47.4287 93.6466 47.2693 93.3506 46.9505C93.0773 46.6089 92.9406 46.1762 92.9406 45.6524C92.9406 45.0831 93.0545 44.5137 93.2822 43.9444C93.51 43.3751 93.7833 42.8171 94.1021 42.2705C94.4437 41.724 94.7967 41.2002 95.161 40.6992C95.5482 40.1982 95.8898 39.7313 96.1858 39.2986L96.1175 39.2303C95.9126 39.4353 95.5823 39.7769 95.1269 40.2551C94.6714 40.7333 94.0338 41.4393 93.2139 42.373C93.0317 42.578 92.9179 42.7032 92.8723 42.7488C92.8268 42.7943 92.7812 42.8171 92.7357 42.8171C92.6446 42.8171 92.599 42.7488 92.599 42.6121C92.599 42.5666 92.656 42.4869 92.7698 42.373C92.8837 42.2364 93.1684 41.9062 93.6238 41.3824C93.8516 41.1319 94.1021 40.8586 94.3754 40.5625C94.6714 40.2437 94.9561 39.9363 95.2294 39.6402C95.5026 39.3214 95.7531 39.0253 95.9809 38.7521C96.2314 38.4788 96.425 38.251 96.5616 38.0689L98.7137 37.9322C97.6889 39.6174 96.8577 40.9725 96.22 41.9973C95.6051 42.9993 95.1269 43.7964 94.7853 44.3885C94.4665 44.9578 94.2501 45.3791 94.1362 45.6524C94.0224 45.9029 93.9654 46.1192 93.9654 46.3014C93.9654 46.5975 94.0338 46.7911 94.1704 46.8822C94.307 46.9732 94.4551 47.0188 94.6145 47.0188C94.8878 47.0188 95.1838 46.9391 95.5026 46.7797C95.8215 46.6203 96.1517 46.4267 96.4933 46.1989C96.8349 45.9484 97.1651 45.6752 97.4839 45.3791C97.8255 45.0831 98.133 44.787 98.4062 44.4909C98.634 44.2632 98.8617 44.0241 99.0894 43.7736C99.34 43.5003 99.5563 43.2498 99.7385 43.0221C99.9434 42.7943 100.114 42.6121 100.251 42.4755C100.388 42.3161 100.467 42.2364 100.49 42.2364C100.627 42.2364 100.695 42.2933 100.695 42.4072C100.695 42.4527 100.524 42.6805 100.183 43.0904C99.8637 43.4775 99.34 44.0469 98.6112 44.7984C96.926 46.5519 95.5823 47.4287 94.5803 47.4287ZM99.9093 32.5349C99.9093 32.2389 100.012 31.9542 100.217 31.6809C100.422 31.3849 100.718 31.2369 101.105 31.2369C101.355 31.2369 101.549 31.3279 101.686 31.5101C101.822 31.6695 101.891 31.8745 101.891 32.125C101.891 32.4211 101.788 32.7171 101.583 33.0132C101.378 33.2865 101.082 33.4231 100.695 33.4231C100.444 33.4231 100.251 33.3434 100.114 33.184C99.9776 33.0018 99.9093 32.7854 99.9093 32.5349ZM108.302 31.5785L110.42 31.4418L108.199 34.8578H112.196C112.31 34.8578 112.367 34.9261 112.367 35.0628C112.367 35.1994 112.31 35.2677 112.196 35.2677H107.96C107.778 35.5866 107.493 36.0534 107.106 36.6683C106.719 37.2604 106.286 37.9322 105.808 38.6837C105.33 39.4125 104.829 40.1868 104.305 41.0066C103.804 41.8265 103.337 42.6008 102.904 43.3295C102.495 44.0355 102.153 44.6845 101.88 45.2766C101.606 45.846 101.47 46.2559 101.47 46.5064C101.47 46.848 101.686 47.0188 102.119 47.0188C102.643 47.0188 103.2 46.8138 103.793 46.4039C104.407 45.9712 105.102 45.3677 105.876 44.5934C106.309 44.1607 106.651 43.8077 106.901 43.5345C107.174 43.2384 107.379 43.0107 107.516 42.8513C107.675 42.6691 107.778 42.5438 107.823 42.4755C107.892 42.3844 107.949 42.3389 107.994 42.3389C108.108 42.3389 108.165 42.4072 108.165 42.5438C108.165 42.5666 108.097 42.6577 107.96 42.8171C107.846 42.9765 107.698 43.1587 107.516 43.3637C107.334 43.5686 107.129 43.785 106.901 44.0127C106.696 44.2404 106.503 44.4454 106.32 44.6276C105.273 45.6752 104.419 46.4039 103.758 46.8138C103.098 47.2238 102.529 47.4287 102.05 47.4287C101.458 47.4059 101.037 47.2238 100.787 46.8822C100.559 46.5178 100.445 46.142 100.445 45.7549C100.445 45.2766 100.513 44.8098 100.65 44.3543C100.787 43.8761 100.991 43.3864 101.265 42.8854C101.538 42.3616 101.868 41.8151 102.255 41.2457C102.665 40.6536 103.121 39.9932 103.622 39.2645L103.553 39.1961C103.235 39.5833 102.916 39.9477 102.597 40.2893C102.301 40.6309 101.925 41.0636 101.47 41.5873C101.401 41.6784 101.288 41.8037 101.128 41.9631C100.991 42.1225 100.855 42.2819 100.718 42.4413C100.582 42.6008 100.456 42.7488 100.342 42.8854C100.229 42.9993 100.16 43.0562 100.137 43.0562C100.024 43.0562 99.9667 43.0107 99.9667 42.9196C99.9667 42.8968 99.978 42.8627 100.001 42.8171C100.024 42.7488 100.081 42.6577 100.172 42.5438C100.285 42.43 100.434 42.2705 100.616 42.0656C100.821 41.8379 101.094 41.5304 101.436 41.1433C101.686 40.87 101.993 40.517 102.358 40.0843C102.745 39.6516 103.144 39.1734 103.553 38.6496C103.986 38.1258 104.419 37.5792 104.852 37.0099C105.307 36.4178 105.728 35.8371 106.115 35.2677H104.886C104.772 35.2677 104.715 35.1994 104.715 35.0628C104.715 34.9261 104.76 34.8578 104.852 34.8578H106.286L108.302 31.5785Z" fill="url(#paint1_linear_214_86)"/>
<path d="M109 9L110.138 14.8616L116 16L110.138 17.1384L109 23L107.862 17.1384L102 16L107.862 14.8616L109 9Z" fill="url(#paint2_linear_214_86)"/>
<defs>
<linearGradient id="paint0_linear_214_86" x1="-2.94075e-07" y1="29.5033" x2="77.9653" y2="22.6289" gradientUnits="userSpaceOnUse">
<stop/>
<stop offset="0.380208" stop-color="#7C2F88"/>
<stop offset="0.994792" stop-color="#332935"/>
</linearGradient>
<linearGradient id="paint1_linear_214_86" x1="56.5714" y1="44.932" x2="107.311" y2="42.0335" gradientUnits="userSpaceOnUse">
<stop/>
<stop offset="0.380208" stop-color="#7C2F88"/>
<stop offset="0.994792" stop-color="#332935"/>
</linearGradient>
<linearGradient id="paint2_linear_214_86" x1="102" y1="18.1788" x2="117.445" y2="17.3157" gradientUnits="userSpaceOnUse">
<stop/>
<stop offset="0.380208" stop-color="#7C2F88"/>
<stop offset="0.994792" stop-color="#332935"/>
</linearGradient>
</defs>
</svg>
