<svg width="26" height="26" viewBox="0 0 26 26" fill="none" xmlns="http://www.w3.org/2000/svg">
<path d="M17.0592 18.1375L19.1592 16.0375C19.442 15.7582 19.7999 15.567 20.1893 15.4871C20.5787 15.4072 20.9829 15.4421 21.3529 15.5875L23.9123 16.6094C24.2862 16.7612 24.6068 17.0202 24.8337 17.3539C25.0606 17.6876 25.1836 18.0809 25.1873 18.4844V23.1719C25.1851 23.4464 25.1274 23.7176 25.0177 23.9692C24.9079 24.2208 24.7484 24.4476 24.5487 24.6359C24.349 24.8242 24.1132 24.9701 23.8556 25.065C23.598 25.1598 23.3239 25.2015 23.0498 25.1875C5.11541 24.0719 1.49666 8.88441 0.81229 3.07191C0.780521 2.78648 0.809547 2.49755 0.89746 2.22414C0.985373 1.95073 1.13018 1.69903 1.32235 1.4856C1.51453 1.27218 1.74971 1.10186 2.01244 0.985848C2.27516 0.869841 2.55947 0.810776 2.84666 0.812538H7.37479C7.77886 0.813734 8.17333 0.935789 8.50747 1.163C8.84161 1.39022 9.10013 1.7122 9.24979 2.08754L10.2717 4.64691C10.4219 5.01542 10.4602 5.42002 10.3819 5.81017C10.3035 6.20033 10.1119 6.55875 9.83104 6.84066L7.73104 8.94066C7.73104 8.94066 8.94041 17.125 17.0592 18.1375Z" fill="url(#paint0_linear_184_1487)"/>
<defs>
<linearGradient id="paint0_linear_184_1487" x1="-6.18006" y1="1.82123" x2="29.2608" y2="8.22158" gradientUnits="userSpaceOnUse">
<stop stop-color="#7C2F88"/>
<stop offset="1" stop-color="#D174FD"/>
</linearGradient>
</defs>
</svg>
