<svg width="20" height="20" viewBox="0 0 20 20" fill="none" xmlns="http://www.w3.org/2000/svg">
<path d="M12.7063 13.425L14.1063 12.025C14.2949 11.8388 14.5334 11.7113 14.793 11.6581C15.0527 11.6048 15.3222 11.6281 15.5688 11.725L17.2751 12.4063C17.5243 12.5074 17.738 12.6801 17.8893 12.9026C18.0406 13.125 18.1226 13.3873 18.1251 13.6563V16.7813C18.1236 16.9643 18.0851 17.1451 18.012 17.3128C17.9388 17.4805 17.8325 17.6317 17.6993 17.7573C17.5662 17.8828 17.409 17.9801 17.2373 18.0433C17.0656 18.1065 16.8828 18.1343 16.7001 18.125C4.7438 17.3813 2.3313 7.25627 1.87505 3.38128C1.85387 3.19099 1.87322 2.99837 1.93183 2.81609C1.99044 2.63382 2.08698 2.46602 2.2151 2.32374C2.34321 2.18145 2.5 2.0679 2.67515 1.99057C2.8503 1.91323 3.03984 1.87385 3.2313 1.87503H6.25005C6.51943 1.87582 6.78242 1.95719 7.00518 2.10867C7.22793 2.26015 7.40028 2.4748 7.50005 2.72503L8.1813 4.43128C8.28146 4.67694 8.30701 4.94668 8.25477 5.20678C8.20253 5.46689 8.0748 5.70584 7.88755 5.89378L6.48755 7.29378C6.48755 7.29378 7.2938 12.75 12.7063 13.425Z" fill="#262626"/>
</svg>
