<svg width="54" height="54" viewBox="0 0 54 54" fill="none" xmlns="http://www.w3.org/2000/svg">
<path d="M35.5 17L32.4913 32.4913L17 35.5L32.4913 38.5087L35.5 54L38.5087 38.5087L54 35.5L38.5087 32.4913L35.5 17Z" fill="url(#paint0_linear_135_2391)"/>
<path d="M8.5 6L7.11761 13.1176L0 14.5L7.11761 15.8824L8.5 23L9.88239 15.8824L17 14.5L9.88239 13.1176L8.5 6Z" fill="url(#paint1_linear_135_2391)"/>
<path d="M35.5 0L34.6055 4.60551L30 5.5L34.6055 6.39449L35.5 11L36.3945 6.39449L41 5.5L36.3945 4.60551L35.5 0Z" fill="url(#paint2_linear_135_2391)"/>
<defs>
<linearGradient id="paint0_linear_135_2391" x1="54" y1="41.2583" x2="13.1818" y2="38.9772" gradientUnits="userSpaceOnUse">
<stop stop-color="#6D5272"/>
<stop offset="0.493478" stop-color="#B83DCC"/>
<stop offset="0.994792" stop-color="#6D5272"/>
</linearGradient>
<linearGradient id="paint1_linear_135_2391" x1="17" y1="17.1457" x2="-1.7543" y2="16.0976" gradientUnits="userSpaceOnUse">
<stop stop-color="#6D5272"/>
<stop offset="0.493478" stop-color="#B83DCC"/>
<stop offset="0.994792" stop-color="#6D5272"/>
</linearGradient>
<linearGradient id="paint2_linear_135_2391" x1="41" y1="7.21192" x2="28.8649" y2="6.53376" gradientUnits="userSpaceOnUse">
<stop stop-color="#6D5272"/>
<stop offset="0.493478" stop-color="#B83DCC"/>
<stop offset="0.994792" stop-color="#6D5272"/>
</linearGradient>
</defs>
</svg>
