<svg width="54" height="54" viewBox="0 0 54 54" fill="none" xmlns="http://www.w3.org/2000/svg">
<path d="M18.5 17L21.5087 32.4913L37 35.5L21.5087 38.5087L18.5 54L15.4913 38.5087L0 35.5L15.4913 32.4913L18.5 17Z" fill="url(#paint0_linear_135_2387)"/>
<path d="M45.5 6L46.8824 13.1176L54 14.5L46.8824 15.8824L45.5 23L44.1176 15.8824L37 14.5L44.1176 13.1176L45.5 6Z" fill="url(#paint1_linear_135_2387)"/>
<path d="M18.5 0L19.3945 4.60551L24 5.5L19.3945 6.39449L18.5 11L17.6055 6.39449L13 5.5L17.6055 4.60551L18.5 0Z" fill="url(#paint2_linear_135_2387)"/>
<defs>
<linearGradient id="paint0_linear_135_2387" x1="-1.5325e-07" y1="41.2583" x2="40.8182" y2="38.9772" gradientUnits="userSpaceOnUse">
<stop stop-color="#6D5272"/>
<stop offset="0.493478" stop-color="#B83DCC"/>
<stop offset="0.994792" stop-color="#6D5272"/>
</linearGradient>
<linearGradient id="paint1_linear_135_2387" x1="37" y1="17.1457" x2="55.7543" y2="16.0976" gradientUnits="userSpaceOnUse">
<stop stop-color="#6D5272"/>
<stop offset="0.493478" stop-color="#B83DCC"/>
<stop offset="0.994792" stop-color="#6D5272"/>
</linearGradient>
<linearGradient id="paint2_linear_135_2387" x1="13" y1="7.21192" x2="25.1351" y2="6.53376" gradientUnits="userSpaceOnUse">
<stop stop-color="#6D5272"/>
<stop offset="0.493478" stop-color="#B83DCC"/>
<stop offset="0.994792" stop-color="#6D5272"/>
</linearGradient>
</defs>
</svg>
