<svg width="64" height="64" viewBox="0 0 64 64" fill="none" xmlns="http://www.w3.org/2000/svg">
<path d="M32 62.75C48.9828 62.75 62.75 48.9828 62.75 32C62.75 15.0172 48.9828 1.25 32 1.25C15.0172 1.25 1.25 15.0172 1.25 32C1.25 48.9828 15.0172 62.75 32 62.75Z" fill="url(#paint0_linear_101_2264)" stroke="white" stroke-width="1.5"/>
<path fill-rule="evenodd" clip-rule="evenodd" d="M26.5 45.75C25.5281 45.75 25.6933 45.383 25.3581 44.4576L22.5 35.0515L44.5 22" fill="#C8DAEA"/>
<path fill-rule="evenodd" clip-rule="evenodd" d="M26.5 45.7498C27.25 45.7498 27.5814 45.4068 28 44.9998L32 41.1103L27.0105 38.1016" fill="#A9C9DD"/>
<path fill-rule="evenodd" clip-rule="evenodd" d="M27.01 38.1024L39.1 47.0346C40.4797 47.7958 41.4754 47.4017 41.819 45.7537L46.7403 22.563C47.2441 20.5429 45.9703 19.6267 44.6504 20.2259L15.7529 31.3687C13.7804 32.1599 13.7919 33.2603 15.3934 33.7507L22.8091 36.0653L39.9774 25.234C40.7879 24.7425 41.5317 25.0068 40.9212 25.5486" fill="url(#paint1_linear_101_2264)"/>
<defs>
<linearGradient id="paint0_linear_101_2264" x1="2" y1="2" x2="62" y2="62" gradientUnits="userSpaceOnUse">
<stop stop-color="#B83DCC"/>
<stop offset="1" stop-color="#7C2F88"/>
</linearGradient>
<linearGradient id="paint1_linear_101_2264" x1="28.2445" y1="33.8427" x2="31.45" y2="44.2113" gradientUnits="userSpaceOnUse">
<stop stop-color="#EFF7FC"/>
<stop offset="1" stop-color="white"/>
</linearGradient>
</defs>
</svg>
