<svg width="64" height="64" viewBox="0 0 64 64" fill="none" xmlns="http://www.w3.org/2000/svg">
<path d="M32 1.25C15.0172 1.25 1.25 15.0172 1.25 32C1.25 48.9828 15.0172 62.75 32 62.75C48.9828 62.75 62.75 48.9828 62.75 32C62.75 15.0172 48.9828 1.25 32 1.25Z" fill="url(#paint0_linear_101_2261)" stroke="white" stroke-width="1.5"/>
<path fill-rule="evenodd" clip-rule="evenodd" d="M33.5693 41.8451C33.5693 41.8451 34.1469 41.7821 34.4427 41.4702C34.7134 41.1845 34.704 40.6452 34.704 40.6452C34.704 40.6452 34.668 38.1272 35.8591 37.7554C37.0329 37.3898 38.5402 40.1905 40.1397 41.2674C41.348 42.0817 42.2651 41.9035 42.2651 41.9035L46.5395 41.8451C46.5395 41.8451 48.7745 41.7099 47.7149 39.9846C47.6272 39.8433 47.0967 38.7079 44.5377 36.3758C41.8566 33.9346 42.2166 34.3294 45.4439 30.1061C47.4097 27.5343 48.1954 25.9642 47.9497 25.2928C47.7165 24.6506 46.2703 24.8212 46.2703 24.8212L41.4591 24.8504C41.4591 24.8504 41.1023 24.8027 40.8378 24.9579C40.5795 25.11 40.412 25.4649 40.412 25.4649C40.412 25.4649 39.6514 27.4544 38.6356 29.1474C36.493 32.7178 35.6369 32.9068 35.2863 32.6856C34.4708 32.1678 34.6743 30.6085 34.6743 29.5008C34.6743 26.0395 35.2096 24.5969 33.6335 24.2235C33.1107 24.0991 32.7257 24.0177 31.3875 24.0038C29.6706 23.9869 28.2182 24.01 27.3949 24.4048C26.8471 24.6675 26.4245 25.2544 26.6828 25.2882C27.0005 25.3297 27.7205 25.4787 28.1024 25.9888C28.5954 26.6478 28.5782 28.1258 28.5782 28.1258C28.5782 28.1258 28.8614 32.2001 27.9161 32.7055C27.2682 33.0528 26.3792 32.3445 24.4681 29.1044C23.4899 27.4452 22.7512 25.6108 22.7512 25.6108C22.7512 25.6108 22.6088 25.2682 22.3537 25.0839C22.0453 24.8611 21.6149 24.792 21.6149 24.792L17.0432 24.8212C17.0432 24.8212 16.3561 24.8396 16.1041 25.133C15.8803 25.3927 16.0869 25.9319 16.0869 25.9319C16.0869 25.9319 19.6664 34.1528 23.72 38.2962C27.4372 42.094 31.6567 41.8451 31.6567 41.8451H33.5693Z" fill="white"/>
<defs>
<linearGradient id="paint0_linear_101_2261" x1="2" y1="2" x2="62" y2="62" gradientUnits="userSpaceOnUse">
<stop stop-color="#B83DCC"/>
<stop offset="1" stop-color="#7C2F88"/>
</linearGradient>
</defs>
</svg>
