<svg width="0" height="0" class="hidden">
  <symbol fill="none" xmlns="http://www.w3.org/2000/svg" viewBox="0 0 30 30" id="vk">
    <path fill-rule="evenodd" clip-rule="evenodd" d="M0 15C0 6.71573 6.71573 0 15 0C23.2843 0 30 6.71573 30 15C30 23.2843 23.2843 30 15 30C6.71573 30 0 23.2843 0 15Z" fill="#262626"></path>
    <path fill-rule="evenodd" clip-rule="evenodd" d="M15.7847 19.9226C15.7847 19.9226 16.0734 19.8911 16.2213 19.7351C16.3567 19.5922 16.352 19.3226 16.352 19.3226C16.352 19.3226 16.334 18.0636 16.9296 17.8777C17.5165 17.6949 18.2701 19.0952 19.0699 19.6337C19.674 20.0408 20.1326 19.9517 20.1326 19.9517L22.2697 19.9226C22.2697 19.9226 23.3872 19.855 22.8574 18.9923C22.8136 18.9216 22.5483 18.354 21.2688 17.1879C19.9283 15.9673 20.1083 16.1647 21.722 14.053C22.7048 12.7672 23.0977 11.9821 22.9748 11.6464C22.8582 11.3253 22.1351 11.4106 22.1351 11.4106L19.7296 11.4252C19.7296 11.4252 19.5511 11.4014 19.4189 11.4789C19.2898 11.555 19.206 11.7324 19.206 11.7324C19.206 11.7324 18.8257 12.7272 18.3178 13.5737C17.2465 15.3589 16.8184 15.4534 16.6431 15.3428C16.2354 15.0839 16.3372 14.3042 16.3372 13.7504C16.3372 12.0197 16.6048 11.2984 15.8167 11.1118C15.5554 11.0495 15.3629 11.0088 14.6938 11.0019C13.8353 10.9935 13.1091 11.005 12.6975 11.2024C12.4236 11.3338 12.2123 11.6272 12.3414 11.6441C12.5003 11.6648 12.8602 11.7394 13.0512 11.9944C13.2977 12.3239 13.2891 13.0629 13.2891 13.0629C13.2891 13.0629 13.4307 15.1 12.9581 15.3528C12.6341 15.5264 12.1896 15.1723 11.2341 13.5522C10.745 12.7226 10.3756 11.8054 10.3756 11.8054C10.3756 11.8054 10.3044 11.6341 10.1768 11.5419C10.0227 11.4306 9.80747 11.396 9.80747 11.396L7.52161 11.4106C7.52161 11.4106 7.17806 11.4198 7.05207 11.5665C6.94016 11.6963 7.04346 11.966 7.04346 11.966C7.04346 11.966 8.83318 16.0764 10.86 18.1481C12.7186 20.047 14.8284 19.9226 14.8284 19.9226H15.7847Z" fill="white"></path>
  </symbol>
	<symbol fill="none" xmlns="http://www.w3.org/2000/svg" viewBox="0 0 30 30" id="tg">
    <path fill-rule="evenodd" clip-rule="evenodd" d="M15 30C23.2843 30 30 23.2843 30 15C30 6.71573 23.2843 0 15 0C6.71573 0 0 6.71573 0 15C0 23.2843 6.71573 30 15 30Z" fill="#262626"></path>
    <path fill-rule="evenodd" clip-rule="evenodd" d="M12.25 21.875C11.7641 21.875 11.8466 21.6915 11.679 21.2288L10.25 16.5257L21.25 10" fill="#C9C9C9"></path>
    <path fill-rule="evenodd" clip-rule="evenodd" d="M12.25 21.8749C12.625 21.8749 12.7907 21.7034 13 21.4999L15 19.5552L12.5053 18.0508" fill="#91A4B0"></path>
    <path fill-rule="evenodd" clip-rule="evenodd" d="M12.5049 18.0502L18.5499 22.5163C19.2397 22.8969 19.7376 22.6999 19.9094 21.8759L22.37 10.2805C22.622 9.27049 21.985 8.81239 21.3251 9.11199L6.87635 14.6834C5.89009 15.079 5.89584 15.6292 6.69658 15.8744L10.4045 17.0317L18.9886 11.616C19.3938 11.3703 19.7657 11.5024 19.4605 11.7733" fill="url(#paint0_linear_214_768)"></path>
    <defs>
      <linearGradient id="paint0_linear_214_768" x1="13.1222" y1="15.9203" x2="14.7249" y2="21.1047" gradientUnits="userSpaceOnUse">
        <stop stop-color="white"></stop>
        <stop offset="1" stop-color="#D7D7D7"></stop>
      </linearGradient>
    </defs>
  </symbol>
	<symbol fill="none" xmlns="http://www.w3.org/2000/svg" viewBox="0 0 14 14" id="icon-close">
    <path d="M1 1.18344L12.8166 13M1 12.8166L12.8166 1" stroke="black" stroke-width="1.5"></path>
  </symbol>
	<symbol xmlns="http://www.w3.org/2000/svg" viewBox="0 0 30 30" id="icon-bag">
    <path fill-rule="evenodd" clip-rule="evenodd" d="M4.6875 8.4375C4.6875 7.74713 5.24714 7.1875 5.9375 7.1875H24.0625C24.7529 7.1875 25.3125 7.74713 25.3125 8.4375V24.0625C25.3125 25.961 23.7735 27.5 21.875 27.5H8.125C6.22652 27.5 4.6875 25.961 4.6875 24.0625V8.4375ZM19.375 12.1875C18.8573 12.1875 18.4375 11.7677 18.4375 11.25V5.3125C18.4375 3.41402 16.8985 1.875 15 1.875C13.1015 1.875 11.5625 3.41402 11.5625 5.3125V11.25C11.5625 11.7677 11.1427 12.1875 10.625 12.1875C10.1073 12.1875 9.6875 11.7677 9.6875 11.25V5.3125C9.6875 2.37849 12.066 0 15 0C17.934 0 20.3125 2.37849 20.3125 5.3125V11.25C20.3125 11.7677 19.8927 12.1875 19.375 12.1875Z"></path>
  </symbol>
</svg>